<?xml version="1.0" encoding="utf-8" standalone="no"?>
<!DOCTYPE svg PUBLIC "-//W3C//DTD SVG 1.1//EN"
  "http://www.w3.org/Graphics/SVG/1.1/DTD/svg11.dtd">
<svg xmlns:xlink="http://www.w3.org/1999/xlink" width="496.8pt" height="496.478437pt" viewBox="0 0 496.8 496.478437" xmlns="http://www.w3.org/2000/svg" version="1.1">
 <metadata>
  <rdf:RDF xmlns:dc="http://purl.org/dc/elements/1.1/" xmlns:cc="http://creativecommons.org/ns#" xmlns:rdf="http://www.w3.org/1999/02/22-rdf-syntax-ns#">
   <cc:Work>
    <dc:type rdf:resource="http://purl.org/dc/dcmitype/StillImage"/>
    <dc:date>2026-05-29T06:38:49.795456</dc:date>
    <dc:format>image/svg+xml</dc:format>
    <dc:creator>
     <cc:Agent>
      <dc:title>Matplotlib v3.10.9, https://matplotlib.org/</dc:title>
     </cc:Agent>
    </dc:creator>
   </cc:Work>
  </rdf:RDF>
 </metadata>
 <defs>
  <style type="text/css">*{stroke-linejoin: round; stroke-linecap: butt}</style>
 </defs>
 <g id="figure_1">
  <g id="patch_1">
   <path d="M 0 496.478437 
L 496.8 496.478437 
L 496.8 0 
L 0 0 
z
" style="fill: #ffffff"/>
  </g>
  <g id="axes_1">
   <g id="LineCollection_1">
    <path d="M 49.061157 308.356256 
L 99.433767 340.855294 
" clip-path="url(#p65ac53ef24)" style="fill: none; stroke: #888888"/>
    <path d="M 49.061157 308.356256 
L 193.840664 324.155739 
" clip-path="url(#p65ac53ef24)" style="fill: none; stroke: #888888"/>
    <path d="M 49.061157 308.356256 
L 238.716693 283.308032 
" clip-path="url(#p65ac53ef24)" style="fill: none; stroke: #888888"/>
    <path d="M 99.433767 340.855294 
L 193.840664 324.155739 
" clip-path="url(#p65ac53ef24)" style="fill: none; stroke: #888888"/>
    <path d="M 99.433767 340.855294 
L 218.17017 371.206809 
" clip-path="url(#p65ac53ef24)" style="fill: none; stroke: #888888"/>
    <path d="M 99.433767 340.855294 
L 238.716693 283.308032 
" clip-path="url(#p65ac53ef24)" style="fill: none; stroke: #888888"/>
    <path d="M 366.163827 411.401969 
L 382.226842 380.086702 
" clip-path="url(#p65ac53ef24)" style="fill: none; stroke: #888888"/>
    <path d="M 366.163827 411.401969 
L 218.17017 371.206809 
" clip-path="url(#p65ac53ef24)" style="fill: none; stroke: #888888"/>
    <path d="M 366.163827 411.401969 
L 293.295932 342.162584 
" clip-path="url(#p65ac53ef24)" style="fill: none; stroke: #888888"/>
    <path d="M 366.163827 411.401969 
L 447.738843 459.189803 
" clip-path="url(#p65ac53ef24)" style="fill: none; stroke: #888888"/>
    <path d="M 193.840664 324.155739 
L 382.226842 380.086702 
" clip-path="url(#p65ac53ef24)" style="fill: none; stroke: #888888"/>
    <path d="M 193.840664 324.155739 
L 293.295932 342.162584 
" clip-path="url(#p65ac53ef24)" style="fill: none; stroke: #888888"/>
    <path d="M 382.226842 380.086702 
L 218.17017 371.206809 
" clip-path="url(#p65ac53ef24)" style="fill: none; stroke: #888888"/>
    <path d="M 218.17017 371.206809 
L 293.295932 342.162584 
" clip-path="url(#p65ac53ef24)" style="fill: none; stroke: #888888"/>
    <path d="M 238.716693 283.308032 
L 293.295932 342.162584 
" clip-path="url(#p65ac53ef24)" style="fill: none; stroke: #888888"/>
   </g>
   <g id="text_1">
    <g id="patch_2">
     <path d="M 67.567389 329.308964 
L 80.926764 329.308964 
Q 82.726764 329.308964 82.726764 327.508964 
L 82.726764 321.702089 
Q 82.726764 319.902089 80.926764 319.902089 
L 67.567389 319.902089 
Q 65.767389 319.902089 65.767389 321.702089 
L 65.767389 327.508964 
Q 65.767389 329.308964 67.567389 329.308964 
z
" clip-path="url(#p65ac53ef24)" style="fill: #ffffff; stroke: #ffffff; stroke-linejoin: miter"/>
    </g>
    <g clip-path="url(#p65ac53ef24)">
     <!-- 8.63 -->
     <g transform="translate(67.567389 326.261151) scale(0.06 -0.06)">
      <defs>
       <path id="DejaVuSans-38" d="M 2034 2216 
Q 1584 2216 1326 1975 
Q 1069 1734 1069 1313 
Q 1069 891 1326 650 
Q 1584 409 2034 409 
Q 2484 409 2743 651 
Q 3003 894 3003 1313 
Q 3003 1734 2745 1975 
Q 2488 2216 2034 2216 
z
M 1403 2484 
Q 997 2584 770 2862 
Q 544 3141 544 3541 
Q 544 4100 942 4425 
Q 1341 4750 2034 4750 
Q 2731 4750 3128 4425 
Q 3525 4100 3525 3541 
Q 3525 3141 3298 2862 
Q 3072 2584 2669 2484 
Q 3125 2378 3379 2068 
Q 3634 1759 3634 1313 
Q 3634 634 3220 271 
Q 2806 -91 2034 -91 
Q 1263 -91 848 271 
Q 434 634 434 1313 
Q 434 1759 690 2068 
Q 947 2378 1403 2484 
z
M 1172 3481 
Q 1172 3119 1398 2916 
Q 1625 2713 2034 2713 
Q 2441 2713 2670 2916 
Q 2900 3119 2900 3481 
Q 2900 3844 2670 4047 
Q 2441 4250 2034 4250 
Q 1625 4250 1398 4047 
Q 1172 3844 1172 3481 
z
" transform="scale(0.015625)"/>
       <path id="DejaVuSans-2e" d="M 684 794 
L 1344 794 
L 1344 0 
L 684 0 
L 684 794 
z
" transform="scale(0.015625)"/>
       <path id="DejaVuSans-36" d="M 2113 2584 
Q 1688 2584 1439 2293 
Q 1191 2003 1191 1497 
Q 1191 994 1439 701 
Q 1688 409 2113 409 
Q 2538 409 2786 701 
Q 3034 994 3034 1497 
Q 3034 2003 2786 2293 
Q 2538 2584 2113 2584 
z
M 3366 4563 
L 3366 3988 
Q 3128 4100 2886 4159 
Q 2644 4219 2406 4219 
Q 1781 4219 1451 3797 
Q 1122 3375 1075 2522 
Q 1259 2794 1537 2939 
Q 1816 3084 2150 3084 
Q 2853 3084 3261 2657 
Q 3669 2231 3669 1497 
Q 3669 778 3244 343 
Q 2819 -91 2113 -91 
Q 1303 -91 875 529 
Q 447 1150 447 2328 
Q 447 3434 972 4092 
Q 1497 4750 2381 4750 
Q 2619 4750 2861 4703 
Q 3103 4656 3366 4563 
z
" transform="scale(0.015625)"/>
       <path id="DejaVuSans-33" d="M 2597 2516 
Q 3050 2419 3304 2112 
Q 3559 1806 3559 1356 
Q 3559 666 3084 287 
Q 2609 -91 1734 -91 
Q 1441 -91 1130 -33 
Q 819 25 488 141 
L 488 750 
Q 750 597 1062 519 
Q 1375 441 1716 441 
Q 2309 441 2620 675 
Q 2931 909 2931 1356 
Q 2931 1769 2642 2001 
Q 2353 2234 1838 2234 
L 1294 2234 
L 1294 2753 
L 1863 2753 
Q 2328 2753 2575 2939 
Q 2822 3125 2822 3475 
Q 2822 3834 2567 4026 
Q 2313 4219 1838 4219 
Q 1578 4219 1281 4162 
Q 984 4106 628 3988 
L 628 4550 
Q 988 4650 1302 4700 
Q 1616 4750 1894 4750 
Q 2613 4750 3031 4423 
Q 3450 4097 3450 3541 
Q 3450 3153 3228 2886 
Q 3006 2619 2597 2516 
z
" transform="scale(0.015625)"/>
      </defs>
      <use xlink:href="#DejaVuSans-38"/>
      <use xlink:href="#DejaVuSans-2e" transform="translate(63.623047 0)"/>
      <use xlink:href="#DejaVuSans-36" transform="translate(95.410156 0)"/>
      <use xlink:href="#DejaVuSans-33" transform="translate(159.033203 0)"/>
     </g>
    </g>
   </g>
   <g id="text_2">
    <g id="patch_3">
     <path d="M 114.773831 320.95972 
L 128.133206 320.95972 
Q 129.933206 320.95972 129.933206 319.15972 
L 129.933206 313.352845 
Q 129.933206 311.552845 128.133206 311.552845 
L 114.773831 311.552845 
Q 112.973831 311.552845 112.973831 313.352845 
L 112.973831 319.15972 
Q 112.973831 320.95972 114.773831 320.95972 
z
" clip-path="url(#p65ac53ef24)" style="fill: #ffffff; stroke: #ffffff; stroke-linejoin: miter"/>
    </g>
    <g clip-path="url(#p65ac53ef24)">
     <!-- 5.46 -->
     <g transform="translate(114.773831 317.911907) scale(0.06 -0.06)">
      <defs>
       <path id="DejaVuSans-35" d="M 691 4666 
L 3169 4666 
L 3169 4134 
L 1269 4134 
L 1269 2991 
Q 1406 3038 1543 3061 
Q 1681 3084 1819 3084 
Q 2600 3084 3056 2656 
Q 3513 2228 3513 1497 
Q 3513 744 3044 326 
Q 2575 -91 1722 -91 
Q 1428 -91 1123 -41 
Q 819 9 494 109 
L 494 744 
Q 775 591 1075 516 
Q 1375 441 1709 441 
Q 2250 441 2565 725 
Q 2881 1009 2881 1497 
Q 2881 1984 2565 2268 
Q 2250 2553 1709 2553 
Q 1456 2553 1204 2497 
Q 953 2441 691 2322 
L 691 4666 
z
" transform="scale(0.015625)"/>
       <path id="DejaVuSans-34" d="M 2419 4116 
L 825 1625 
L 2419 1625 
L 2419 4116 
z
M 2253 4666 
L 3047 4666 
L 3047 1625 
L 3713 1625 
L 3713 1100 
L 3047 1100 
L 3047 0 
L 2419 0 
L 2419 1100 
L 313 1100 
L 313 1709 
L 2253 4666 
z
" transform="scale(0.015625)"/>
      </defs>
      <use xlink:href="#DejaVuSans-35"/>
      <use xlink:href="#DejaVuSans-2e" transform="translate(63.623047 0)"/>
      <use xlink:href="#DejaVuSans-34" transform="translate(95.410156 0)"/>
      <use xlink:href="#DejaVuSans-36" transform="translate(159.033203 0)"/>
     </g>
    </g>
   </g>
   <g id="text_3">
    <g id="patch_4">
     <path d="M 137.210196 300.535455 
L 150.569571 300.535455 
Q 152.369571 300.535455 152.369571 298.735455 
L 152.369571 292.92858 
Q 152.369571 291.12858 150.569571 291.12858 
L 137.210196 291.12858 
Q 135.410196 291.12858 135.410196 292.92858 
L 135.410196 298.735455 
Q 135.410196 300.535455 137.210196 300.535455 
z
" clip-path="url(#p65ac53ef24)" style="fill: #ffffff; stroke: #ffffff; stroke-linejoin: miter"/>
    </g>
    <g clip-path="url(#p65ac53ef24)">
     <!-- 1.26 -->
     <g transform="translate(137.210196 297.487642) scale(0.06 -0.06)">
      <defs>
       <path id="DejaVuSans-31" d="M 794 531 
L 1825 531 
L 1825 4091 
L 703 3866 
L 703 4441 
L 1819 4666 
L 2450 4666 
L 2450 531 
L 3481 531 
L 3481 0 
L 794 0 
L 794 531 
z
" transform="scale(0.015625)"/>
       <path id="DejaVuSans-32" d="M 1228 531 
L 3431 531 
L 3431 0 
L 469 0 
L 469 531 
Q 828 903 1448 1529 
Q 2069 2156 2228 2338 
Q 2531 2678 2651 2914 
Q 2772 3150 2772 3378 
Q 2772 3750 2511 3984 
Q 2250 4219 1831 4219 
Q 1534 4219 1204 4116 
Q 875 4013 500 3803 
L 500 4441 
Q 881 4594 1212 4672 
Q 1544 4750 1819 4750 
Q 2544 4750 2975 4387 
Q 3406 4025 3406 3419 
Q 3406 3131 3298 2873 
Q 3191 2616 2906 2266 
Q 2828 2175 2409 1742 
Q 1991 1309 1228 531 
z
" transform="scale(0.015625)"/>
      </defs>
      <use xlink:href="#DejaVuSans-31"/>
      <use xlink:href="#DejaVuSans-2e" transform="translate(63.623047 0)"/>
      <use xlink:href="#DejaVuSans-32" transform="translate(95.410156 0)"/>
      <use xlink:href="#DejaVuSans-36" transform="translate(159.033203 0)"/>
     </g>
    </g>
   </g>
   <g id="text_4">
    <g id="patch_5">
     <path d="M 139.957169 337.209018 
L 153.316544 337.209018 
Q 155.116544 337.209018 155.116544 335.409018 
L 155.116544 329.602143 
Q 155.116544 327.802143 153.316544 327.802143 
L 139.957169 327.802143 
Q 138.157169 327.802143 138.157169 329.602143 
L 138.157169 335.409018 
Q 138.157169 337.209018 139.957169 337.209018 
z
" clip-path="url(#p65ac53ef24)" style="fill: #ffffff; stroke: #ffffff; stroke-linejoin: miter"/>
    </g>
    <g clip-path="url(#p65ac53ef24)">
     <!-- 5.01 -->
     <g transform="translate(139.957169 334.161205) scale(0.06 -0.06)">
      <defs>
       <path id="DejaVuSans-30" d="M 2034 4250 
Q 1547 4250 1301 3770 
Q 1056 3291 1056 2328 
Q 1056 1369 1301 889 
Q 1547 409 2034 409 
Q 2525 409 2770 889 
Q 3016 1369 3016 2328 
Q 3016 3291 2770 3770 
Q 2525 4250 2034 4250 
z
M 2034 4750 
Q 2819 4750 3233 4129 
Q 3647 3509 3647 2328 
Q 3647 1150 3233 529 
Q 2819 -91 2034 -91 
Q 1250 -91 836 529 
Q 422 1150 422 2328 
Q 422 3509 836 4129 
Q 1250 4750 2034 4750 
z
" transform="scale(0.015625)"/>
      </defs>
      <use xlink:href="#DejaVuSans-35"/>
      <use xlink:href="#DejaVuSans-2e" transform="translate(63.623047 0)"/>
      <use xlink:href="#DejaVuSans-30" transform="translate(95.410156 0)"/>
      <use xlink:href="#DejaVuSans-31" transform="translate(159.033203 0)"/>
     </g>
    </g>
   </g>
   <g id="text_5">
    <g id="patch_6">
     <path d="M 152.122253 360.734482 
L 165.481628 360.734482 
Q 167.281628 360.734482 167.281628 358.934482 
L 167.281628 353.127607 
Q 167.281628 351.327607 165.481628 351.327607 
L 152.122253 351.327607 
Q 150.322253 351.327607 150.322253 353.127607 
L 150.322253 358.934482 
Q 150.322253 360.734482 152.122253 360.734482 
z
" clip-path="url(#p65ac53ef24)" style="fill: #ffffff; stroke: #ffffff; stroke-linejoin: miter"/>
    </g>
    <g clip-path="url(#p65ac53ef24)">
     <!-- 9.51 -->
     <g transform="translate(152.122253 357.68667) scale(0.06 -0.06)">
      <defs>
       <path id="DejaVuSans-39" d="M 703 97 
L 703 672 
Q 941 559 1184 500 
Q 1428 441 1663 441 
Q 2288 441 2617 861 
Q 2947 1281 2994 2138 
Q 2813 1869 2534 1725 
Q 2256 1581 1919 1581 
Q 1219 1581 811 2004 
Q 403 2428 403 3163 
Q 403 3881 828 4315 
Q 1253 4750 1959 4750 
Q 2769 4750 3195 4129 
Q 3622 3509 3622 2328 
Q 3622 1225 3098 567 
Q 2575 -91 1691 -91 
Q 1453 -91 1209 -44 
Q 966 3 703 97 
z
M 1959 2075 
Q 2384 2075 2632 2365 
Q 2881 2656 2881 3163 
Q 2881 3666 2632 3958 
Q 2384 4250 1959 4250 
Q 1534 4250 1286 3958 
Q 1038 3666 1038 3163 
Q 1038 2656 1286 2365 
Q 1534 2075 1959 2075 
z
" transform="scale(0.015625)"/>
      </defs>
      <use xlink:href="#DejaVuSans-39"/>
      <use xlink:href="#DejaVuSans-2e" transform="translate(63.623047 0)"/>
      <use xlink:href="#DejaVuSans-35" transform="translate(95.410156 0)"/>
      <use xlink:href="#DejaVuSans-31" transform="translate(159.033203 0)"/>
     </g>
    </g>
   </g>
   <g id="text_6">
    <g id="patch_7">
     <path d="M 162.397151 316.784436 
L 175.756526 316.784436 
Q 177.556526 316.784436 177.556526 314.984436 
L 177.556526 309.177561 
Q 177.556526 307.377561 175.756526 307.377561 
L 162.397151 307.377561 
Q 160.597151 307.377561 160.597151 309.177561 
L 160.597151 314.984436 
Q 160.597151 316.784436 162.397151 316.784436 
z
" clip-path="url(#p65ac53ef24)" style="fill: #ffffff; stroke: #ffffff; stroke-linejoin: miter"/>
    </g>
    <g clip-path="url(#p65ac53ef24)">
     <!-- 1.23 -->
     <g transform="translate(162.397151 313.736624) scale(0.06 -0.06)">
      <use xlink:href="#DejaVuSans-31"/>
      <use xlink:href="#DejaVuSans-2e" transform="translate(63.623047 0)"/>
      <use xlink:href="#DejaVuSans-32" transform="translate(95.410156 0)"/>
      <use xlink:href="#DejaVuSans-33" transform="translate(159.033203 0)"/>
     </g>
    </g>
   </g>
   <g id="text_7">
    <g id="patch_8">
     <path d="M 369.42389 400.448763 
L 378.965765 400.448763 
Q 380.765765 400.448763 380.765765 398.648763 
L 380.765765 392.841888 
Q 380.765765 391.041888 378.965765 391.041888 
L 369.42389 391.041888 
Q 367.62389 391.041888 367.62389 392.841888 
L 367.62389 398.648763 
Q 367.62389 400.448763 369.42389 400.448763 
z
" clip-path="url(#p65ac53ef24)" style="fill: #ffffff; stroke: #ffffff; stroke-linejoin: miter"/>
    </g>
    <g clip-path="url(#p65ac53ef24)">
     <!-- 4.8 -->
     <g transform="translate(369.42389 397.40095) scale(0.06 -0.06)">
      <use xlink:href="#DejaVuSans-34"/>
      <use xlink:href="#DejaVuSans-2e" transform="translate(63.623047 0)"/>
      <use xlink:href="#DejaVuSans-38" transform="translate(95.410156 0)"/>
     </g>
    </g>
   </g>
   <g id="text_8">
    <g id="patch_9">
     <path d="M 287.394315 396.007353 
L 296.93619 396.007353 
Q 298.73619 396.007353 298.73619 394.207353 
L 298.73619 388.400478 
Q 298.73619 386.600478 296.93619 386.600478 
L 287.394315 386.600478 
Q 285.594315 386.600478 285.594315 388.400478 
L 285.594315 394.207353 
Q 285.594315 396.007353 287.394315 396.007353 
z
" clip-path="url(#p65ac53ef24)" style="fill: #ffffff; stroke: #ffffff; stroke-linejoin: miter"/>
    </g>
    <g clip-path="url(#p65ac53ef24)">
     <!-- 3.0 -->
     <g transform="translate(287.394315 392.95954) scale(0.06 -0.06)">
      <use xlink:href="#DejaVuSans-33"/>
      <use xlink:href="#DejaVuSans-2e" transform="translate(63.623047 0)"/>
      <use xlink:href="#DejaVuSans-30" transform="translate(95.410156 0)"/>
     </g>
    </g>
   </g>
   <g id="text_9">
    <g id="patch_10">
     <path d="M 323.050058 381.485587 
L 336.409433 381.485587 
Q 338.209433 381.485587 338.209433 379.685587 
L 338.209433 373.878712 
Q 338.209433 372.078712 336.409433 372.078712 
L 323.050058 372.078712 
Q 321.250058 372.078712 321.250058 373.878712 
L 321.250058 379.685587 
Q 321.250058 381.485587 323.050058 381.485587 
z
" clip-path="url(#p65ac53ef24)" style="fill: #ffffff; stroke: #ffffff; stroke-linejoin: miter"/>
    </g>
    <g clip-path="url(#p65ac53ef24)">
     <!-- 3.08 -->
     <g transform="translate(323.050058 378.437774) scale(0.06 -0.06)">
      <use xlink:href="#DejaVuSans-33"/>
      <use xlink:href="#DejaVuSans-2e" transform="translate(63.623047 0)"/>
      <use xlink:href="#DejaVuSans-30" transform="translate(95.410156 0)"/>
      <use xlink:href="#DejaVuSans-38" transform="translate(159.033203 0)"/>
     </g>
    </g>
   </g>
   <g id="text_10">
    <g id="patch_11">
     <path d="M 400.270008 439.998363 
L 413.629383 439.998363 
Q 415.429383 439.998363 415.429383 438.198363 
L 415.429383 432.391488 
Q 415.429383 430.591488 413.629383 430.591488 
L 400.270008 430.591488 
Q 398.470008 430.591488 398.470008 432.391488 
L 398.470008 438.198363 
Q 398.470008 439.998363 400.270008 439.998363 
z
" clip-path="url(#p65ac53ef24)" style="fill: #ffffff; stroke: #ffffff; stroke-linejoin: miter"/>
    </g>
    <g clip-path="url(#p65ac53ef24)">
     <!-- 5.14 -->
     <g transform="translate(400.270008 436.950551) scale(0.06 -0.06)">
      <use xlink:href="#DejaVuSans-35"/>
      <use xlink:href="#DejaVuSans-2e" transform="translate(63.623047 0)"/>
      <use xlink:href="#DejaVuSans-31" transform="translate(95.410156 0)"/>
      <use xlink:href="#DejaVuSans-34" transform="translate(159.033203 0)"/>
     </g>
    </g>
   </g>
   <g id="text_11">
    <g id="patch_12">
     <path d="M 281.355753 356.825159 
L 294.715128 356.825159 
Q 296.515128 356.825159 296.515128 355.025159 
L 296.515128 349.218284 
Q 296.515128 347.418284 294.715128 347.418284 
L 281.355753 347.418284 
Q 279.555753 347.418284 279.555753 349.218284 
L 279.555753 355.025159 
Q 279.555753 356.825159 281.355753 356.825159 
z
" clip-path="url(#p65ac53ef24)" style="fill: #ffffff; stroke: #ffffff; stroke-linejoin: miter"/>
    </g>
    <g clip-path="url(#p65ac53ef24)">
     <!-- 1.19 -->
     <g transform="translate(281.355753 353.777347) scale(0.06 -0.06)">
      <use xlink:href="#DejaVuSans-31"/>
      <use xlink:href="#DejaVuSans-2e" transform="translate(63.623047 0)"/>
      <use xlink:href="#DejaVuSans-31" transform="translate(95.410156 0)"/>
      <use xlink:href="#DejaVuSans-39" transform="translate(159.033203 0)"/>
     </g>
    </g>
   </g>
   <g id="text_12">
    <g id="patch_13">
     <path d="M 236.8872 337.862344 
L 250.246575 337.862344 
Q 252.046575 337.862344 252.046575 336.062344 
L 252.046575 330.255469 
Q 252.046575 328.455469 250.246575 328.455469 
L 236.8872 328.455469 
Q 235.0872 328.455469 235.0872 330.255469 
L 235.0872 336.062344 
Q 235.0872 337.862344 236.8872 337.862344 
z
" clip-path="url(#p65ac53ef24)" style="fill: #ffffff; stroke: #ffffff; stroke-linejoin: miter"/>
    </g>
    <g clip-path="url(#p65ac53ef24)">
     <!-- 9.93 -->
     <g transform="translate(236.8872 334.814531) scale(0.06 -0.06)">
      <use xlink:href="#DejaVuSans-39"/>
      <use xlink:href="#DejaVuSans-2e" transform="translate(63.623047 0)"/>
      <use xlink:href="#DejaVuSans-39" transform="translate(95.410156 0)"/>
      <use xlink:href="#DejaVuSans-33" transform="translate(159.033203 0)"/>
     </g>
    </g>
   </g>
   <g id="text_13">
    <g id="patch_14">
     <path d="M 293.517299 380.350111 
L 306.876674 380.350111 
Q 308.676674 380.350111 308.676674 378.550111 
L 308.676674 372.743236 
Q 308.676674 370.943236 306.876674 370.943236 
L 293.517299 370.943236 
Q 291.717299 370.943236 291.717299 372.743236 
L 291.717299 378.550111 
Q 291.717299 380.350111 293.517299 380.350111 
z
" clip-path="url(#p65ac53ef24)" style="fill: #ffffff; stroke: #ffffff; stroke-linejoin: miter"/>
    </g>
    <g clip-path="url(#p65ac53ef24)">
     <!-- 3.99 -->
     <g transform="translate(293.517299 377.302299) scale(0.06 -0.06)">
      <use xlink:href="#DejaVuSans-33"/>
      <use xlink:href="#DejaVuSans-2e" transform="translate(63.623047 0)"/>
      <use xlink:href="#DejaVuSans-39" transform="translate(95.410156 0)"/>
      <use xlink:href="#DejaVuSans-39" transform="translate(159.033203 0)"/>
     </g>
    </g>
   </g>
   <g id="text_14">
    <g id="patch_15">
     <path d="M 249.05351 361.388078 
L 262.412885 361.388078 
Q 264.212885 361.388078 264.212885 359.588078 
L 264.212885 353.781203 
Q 264.212885 351.981203 262.412885 351.981203 
L 249.05351 351.981203 
Q 247.25351 351.981203 247.25351 353.781203 
L 247.25351 359.588078 
Q 247.25351 361.388078 249.05351 361.388078 
z
" clip-path="url(#p65ac53ef24)" style="fill: #ffffff; stroke: #ffffff; stroke-linejoin: miter"/>
    </g>
    <g clip-path="url(#p65ac53ef24)">
     <!-- 6.29 -->
     <g transform="translate(249.05351 358.340265) scale(0.06 -0.06)">
      <use xlink:href="#DejaVuSans-36"/>
      <use xlink:href="#DejaVuSans-2e" transform="translate(63.623047 0)"/>
      <use xlink:href="#DejaVuSans-32" transform="translate(95.410156 0)"/>
      <use xlink:href="#DejaVuSans-39" transform="translate(159.033203 0)"/>
     </g>
    </g>
   </g>
   <g id="text_15">
    <g id="patch_16">
     <path d="M 259.326041 317.438115 
L 272.685416 317.438115 
Q 274.485416 317.438115 274.485416 315.638115 
L 274.485416 309.83124 
Q 274.485416 308.03124 272.685416 308.03124 
L 259.326041 308.03124 
Q 257.526041 308.03124 257.526041 309.83124 
L 257.526041 315.638115 
Q 257.526041 317.438115 259.326041 317.438115 
z
" clip-path="url(#p65ac53ef24)" style="fill: #ffffff; stroke: #ffffff; stroke-linejoin: miter"/>
    </g>
    <g clip-path="url(#p65ac53ef24)">
     <!-- 3.18 -->
     <g transform="translate(259.326041 314.390303) scale(0.06 -0.06)">
      <use xlink:href="#DejaVuSans-33"/>
      <use xlink:href="#DejaVuSans-2e" transform="translate(63.623047 0)"/>
      <use xlink:href="#DejaVuSans-31" transform="translate(95.410156 0)"/>
      <use xlink:href="#DejaVuSans-38" transform="translate(159.033203 0)"/>
     </g>
    </g>
   </g>
   <g id="PathCollection_1">
    <defs>
     <path id="md4b338890c" d="M 0 14.662878 
C 3.888641 14.662878 7.618536 13.117905 10.368221 10.368221 
C 13.117905 7.618536 14.662878 3.888641 14.662878 0 
C 14.662878 -3.888641 13.117905 -7.618536 10.368221 -10.368221 
C 7.618536 -13.117905 3.888641 -14.662878 0 -14.662878 
C -3.888641 -14.662878 -7.618536 -13.117905 -10.368221 -10.368221 
C -13.117905 -7.618536 -14.662878 -3.888641 -14.662878 0 
C -14.662878 3.888641 -13.117905 7.618536 -10.368221 10.368221 
C -7.618536 13.117905 -3.888641 14.662878 0 14.662878 
z
" style="stroke: #274472"/>
    </defs>
    <g clip-path="url(#p65ac53ef24)">
     <use xlink:href="#md4b338890c" x="49.061157" y="308.356256" style="fill: #cfe3ff; stroke: #274472"/>
     <use xlink:href="#md4b338890c" x="99.433767" y="340.855294" style="fill: #cfe3ff; stroke: #274472"/>
     <use xlink:href="#md4b338890c" x="366.163827" y="411.401969" style="fill: #cfe3ff; stroke: #274472"/>
     <use xlink:href="#md4b338890c" x="193.840664" y="324.155739" style="fill: #cfe3ff; stroke: #274472"/>
     <use xlink:href="#md4b338890c" x="382.226842" y="380.086702" style="fill: #cfe3ff; stroke: #274472"/>
     <use xlink:href="#md4b338890c" x="218.17017" y="371.206809" style="fill: #cfe3ff; stroke: #274472"/>
     <use xlink:href="#md4b338890c" x="119.583548" y="42.092983" style="fill: #cfe3ff; stroke: #274472"/>
     <use xlink:href="#md4b338890c" x="238.716693" y="283.308032" style="fill: #cfe3ff; stroke: #274472"/>
     <use xlink:href="#md4b338890c" x="293.295932" y="342.162584" style="fill: #cfe3ff; stroke: #274472"/>
     <use xlink:href="#md4b338890c" x="447.738843" y="459.189803" style="fill: #cfe3ff; stroke: #274472"/>
    </g>
   </g>
   <g id="text_16">
    <g clip-path="url(#p65ac53ef24)">
     <!-- N0 -->
     <g transform="translate(42.139282 311.115631) scale(0.1 -0.1)">
      <defs>
       <path id="DejaVuSans-4e" d="M 628 4666 
L 1478 4666 
L 3547 763 
L 3547 4666 
L 4159 4666 
L 4159 0 
L 3309 0 
L 1241 3903 
L 1241 0 
L 628 0 
L 628 4666 
z
" transform="scale(0.015625)"/>
      </defs>
      <use xlink:href="#DejaVuSans-4e"/>
      <use xlink:href="#DejaVuSans-30" transform="translate(74.804688 0)"/>
     </g>
    </g>
   </g>
   <g id="text_17">
    <g clip-path="url(#p65ac53ef24)">
     <!-- N1 -->
     <g transform="translate(92.511892 343.614669) scale(0.1 -0.1)">
      <use xlink:href="#DejaVuSans-4e"/>
      <use xlink:href="#DejaVuSans-31" transform="translate(74.804688 0)"/>
     </g>
    </g>
   </g>
   <g id="text_18">
    <g clip-path="url(#p65ac53ef24)">
     <!-- N2 -->
     <g transform="translate(359.241952 414.161344) scale(0.1 -0.1)">
      <use xlink:href="#DejaVuSans-4e"/>
      <use xlink:href="#DejaVuSans-32" transform="translate(74.804688 0)"/>
     </g>
    </g>
   </g>
   <g id="text_19">
    <g clip-path="url(#p65ac53ef24)">
     <!-- N3 -->
     <g transform="translate(186.918789 326.915114) scale(0.1 -0.1)">
      <use xlink:href="#DejaVuSans-4e"/>
      <use xlink:href="#DejaVuSans-33" transform="translate(74.804688 0)"/>
     </g>
    </g>
   </g>
   <g id="text_20">
    <g clip-path="url(#p65ac53ef24)">
     <!-- N4 -->
     <g transform="translate(375.304967 382.846077) scale(0.1 -0.1)">
      <use xlink:href="#DejaVuSans-4e"/>
      <use xlink:href="#DejaVuSans-34" transform="translate(74.804688 0)"/>
     </g>
    </g>
   </g>
   <g id="text_21">
    <g clip-path="url(#p65ac53ef24)">
     <!-- N5 -->
     <g transform="translate(211.248295 373.966184) scale(0.1 -0.1)">
      <use xlink:href="#DejaVuSans-4e"/>
      <use xlink:href="#DejaVuSans-35" transform="translate(74.804688 0)"/>
     </g>
    </g>
   </g>
   <g id="text_22">
    <g clip-path="url(#p65ac53ef24)">
     <!-- N6 -->
     <g transform="translate(112.661673 44.852358) scale(0.1 -0.1)">
      <use xlink:href="#DejaVuSans-4e"/>
      <use xlink:href="#DejaVuSans-36" transform="translate(74.804688 0)"/>
     </g>
    </g>
   </g>
   <g id="text_23">
    <g clip-path="url(#p65ac53ef24)">
     <!-- N7 -->
     <g transform="translate(231.794818 286.067407) scale(0.1 -0.1)">
      <defs>
       <path id="DejaVuSans-37" d="M 525 4666 
L 3525 4666 
L 3525 4397 
L 1831 0 
L 1172 0 
L 2766 4134 
L 525 4134 
L 525 4666 
z
" transform="scale(0.015625)"/>
      </defs>
      <use xlink:href="#DejaVuSans-4e"/>
      <use xlink:href="#DejaVuSans-37" transform="translate(74.804688 0)"/>
     </g>
    </g>
   </g>
   <g id="text_24">
    <g clip-path="url(#p65ac53ef24)">
     <!-- N8 -->
     <g transform="translate(286.374057 344.921959) scale(0.1 -0.1)">
      <use xlink:href="#DejaVuSans-4e"/>
      <use xlink:href="#DejaVuSans-38" transform="translate(74.804688 0)"/>
     </g>
    </g>
   </g>
   <g id="text_25">
    <g clip-path="url(#p65ac53ef24)">
     <!-- N9 -->
     <g transform="translate(440.816968 461.949178) scale(0.1 -0.1)">
      <use xlink:href="#DejaVuSans-4e"/>
      <use xlink:href="#DejaVuSans-39" transform="translate(74.804688 0)"/>
     </g>
    </g>
   </g>
   <g id="text_26">
    <!-- random-small-n10-s1 -->
    <g transform="translate(194.961719 14.798437) scale(0.1 -0.1)">
     <defs>
      <path id="DejaVuSans-72" d="M 2631 2963 
Q 2534 3019 2420 3045 
Q 2306 3072 2169 3072 
Q 1681 3072 1420 2755 
Q 1159 2438 1159 1844 
L 1159 0 
L 581 0 
L 581 3500 
L 1159 3500 
L 1159 2956 
Q 1341 3275 1631 3429 
Q 1922 3584 2338 3584 
Q 2397 3584 2469 3576 
Q 2541 3569 2628 3553 
L 2631 2963 
z
" transform="scale(0.015625)"/>
      <path id="DejaVuSans-61" d="M 2194 1759 
Q 1497 1759 1228 1600 
Q 959 1441 959 1056 
Q 959 750 1161 570 
Q 1363 391 1709 391 
Q 2188 391 2477 730 
Q 2766 1069 2766 1631 
L 2766 1759 
L 2194 1759 
z
M 3341 1997 
L 3341 0 
L 2766 0 
L 2766 531 
Q 2569 213 2275 61 
Q 1981 -91 1556 -91 
Q 1019 -91 701 211 
Q 384 513 384 1019 
Q 384 1609 779 1909 
Q 1175 2209 1959 2209 
L 2766 2209 
L 2766 2266 
Q 2766 2663 2505 2880 
Q 2244 3097 1772 3097 
Q 1472 3097 1187 3025 
Q 903 2953 641 2809 
L 641 3341 
Q 956 3463 1253 3523 
Q 1550 3584 1831 3584 
Q 2591 3584 2966 3190 
Q 3341 2797 3341 1997 
z
" transform="scale(0.015625)"/>
      <path id="DejaVuSans-6e" d="M 3513 2113 
L 3513 0 
L 2938 0 
L 2938 2094 
Q 2938 2591 2744 2837 
Q 2550 3084 2163 3084 
Q 1697 3084 1428 2787 
Q 1159 2491 1159 1978 
L 1159 0 
L 581 0 
L 581 3500 
L 1159 3500 
L 1159 2956 
Q 1366 3272 1645 3428 
Q 1925 3584 2291 3584 
Q 2894 3584 3203 3211 
Q 3513 2838 3513 2113 
z
" transform="scale(0.015625)"/>
      <path id="DejaVuSans-64" d="M 2906 2969 
L 2906 4863 
L 3481 4863 
L 3481 0 
L 2906 0 
L 2906 525 
Q 2725 213 2448 61 
Q 2172 -91 1784 -91 
Q 1150 -91 751 415 
Q 353 922 353 1747 
Q 353 2572 751 3078 
Q 1150 3584 1784 3584 
Q 2172 3584 2448 3432 
Q 2725 3281 2906 2969 
z
M 947 1747 
Q 947 1113 1208 752 
Q 1469 391 1925 391 
Q 2381 391 2643 752 
Q 2906 1113 2906 1747 
Q 2906 2381 2643 2742 
Q 2381 3103 1925 3103 
Q 1469 3103 1208 2742 
Q 947 2381 947 1747 
z
" transform="scale(0.015625)"/>
      <path id="DejaVuSans-6f" d="M 1959 3097 
Q 1497 3097 1228 2736 
Q 959 2375 959 1747 
Q 959 1119 1226 758 
Q 1494 397 1959 397 
Q 2419 397 2687 759 
Q 2956 1122 2956 1747 
Q 2956 2369 2687 2733 
Q 2419 3097 1959 3097 
z
M 1959 3584 
Q 2709 3584 3137 3096 
Q 3566 2609 3566 1747 
Q 3566 888 3137 398 
Q 2709 -91 1959 -91 
Q 1206 -91 779 398 
Q 353 888 353 1747 
Q 353 2609 779 3096 
Q 1206 3584 1959 3584 
z
" transform="scale(0.015625)"/>
      <path id="DejaVuSans-6d" d="M 3328 2828 
Q 3544 3216 3844 3400 
Q 4144 3584 4550 3584 
Q 5097 3584 5394 3201 
Q 5691 2819 5691 2113 
L 5691 0 
L 5113 0 
L 5113 2094 
Q 5113 2597 4934 2840 
Q 4756 3084 4391 3084 
Q 3944 3084 3684 2787 
Q 3425 2491 3425 1978 
L 3425 0 
L 2847 0 
L 2847 2094 
Q 2847 2600 2669 2842 
Q 2491 3084 2119 3084 
Q 1678 3084 1418 2786 
Q 1159 2488 1159 1978 
L 1159 0 
L 581 0 
L 581 3500 
L 1159 3500 
L 1159 2956 
Q 1356 3278 1631 3431 
Q 1906 3584 2284 3584 
Q 2666 3584 2933 3390 
Q 3200 3197 3328 2828 
z
" transform="scale(0.015625)"/>
      <path id="DejaVuSans-2d" d="M 313 2009 
L 1997 2009 
L 1997 1497 
L 313 1497 
L 313 2009 
z
" transform="scale(0.015625)"/>
      <path id="DejaVuSans-73" d="M 2834 3397 
L 2834 2853 
Q 2591 2978 2328 3040 
Q 2066 3103 1784 3103 
Q 1356 3103 1142 2972 
Q 928 2841 928 2578 
Q 928 2378 1081 2264 
Q 1234 2150 1697 2047 
L 1894 2003 
Q 2506 1872 2764 1633 
Q 3022 1394 3022 966 
Q 3022 478 2636 193 
Q 2250 -91 1575 -91 
Q 1294 -91 989 -36 
Q 684 19 347 128 
L 347 722 
Q 666 556 975 473 
Q 1284 391 1588 391 
Q 1994 391 2212 530 
Q 2431 669 2431 922 
Q 2431 1156 2273 1281 
Q 2116 1406 1581 1522 
L 1381 1569 
Q 847 1681 609 1914 
Q 372 2147 372 2553 
Q 372 3047 722 3315 
Q 1072 3584 1716 3584 
Q 2034 3584 2315 3537 
Q 2597 3491 2834 3397 
z
" transform="scale(0.015625)"/>
      <path id="DejaVuSans-6c" d="M 603 4863 
L 1178 4863 
L 1178 0 
L 603 0 
L 603 4863 
z
" transform="scale(0.015625)"/>
     </defs>
     <use xlink:href="#DejaVuSans-72"/>
     <use xlink:href="#DejaVuSans-61" transform="translate(41.113281 0)"/>
     <use xlink:href="#DejaVuSans-6e" transform="translate(102.392578 0)"/>
     <use xlink:href="#DejaVuSans-64" transform="translate(165.771484 0)"/>
     <use xlink:href="#DejaVuSans-6f" transform="translate(229.248047 0)"/>
     <use xlink:href="#DejaVuSans-6d" transform="translate(290.429688 0)"/>
     <use xlink:href="#DejaVuSans-2d" transform="translate(387.841797 0)"/>
     <use xlink:href="#DejaVuSans-73" transform="translate(423.925781 0)"/>
     <use xlink:href="#DejaVuSans-6d" transform="translate(476.025391 0)"/>
     <use xlink:href="#DejaVuSans-61" transform="translate(573.4375 0)"/>
     <use xlink:href="#DejaVuSans-6c" transform="translate(634.716797 0)"/>
     <use xlink:href="#DejaVuSans-6c" transform="translate(662.5 0)"/>
     <use xlink:href="#DejaVuSans-2d" transform="translate(690.283203 0)"/>
     <use xlink:href="#DejaVuSans-6e" transform="translate(726.367188 0)"/>
     <use xlink:href="#DejaVuSans-31" transform="translate(789.746094 0)"/>
     <use xlink:href="#DejaVuSans-30" transform="translate(853.369141 0)"/>
     <use xlink:href="#DejaVuSans-2d" transform="translate(916.992188 0)"/>
     <use xlink:href="#DejaVuSans-73" transform="translate(953.076172 0)"/>
     <use xlink:href="#DejaVuSans-31" transform="translate(1005.175781 0)"/>
    </g>
   </g>
  </g>
 </g>
 <defs>
  <clipPath id="p65ac53ef24">
   <rect x="7.2" y="20.798437" width="482.4" height="468.48"/>
  </clipPath>
 </defs>
</svg>
