<?xml version="1.0" encoding="utf-8" standalone="no"?>
<!DOCTYPE svg PUBLIC "-//W3C//DTD SVG 1.1//EN"
  "http://www.w3.org/Graphics/SVG/1.1/DTD/svg11.dtd">
<svg xmlns:xlink="http://www.w3.org/1999/xlink" width="626.4pt" height="626.078437pt" viewBox="0 0 626.4 626.078437" xmlns="http://www.w3.org/2000/svg" version="1.1">
 <metadata>
  <rdf:RDF xmlns:dc="http://purl.org/dc/elements/1.1/" xmlns:cc="http://creativecommons.org/ns#" xmlns:rdf="http://www.w3.org/1999/02/22-rdf-syntax-ns#">
   <cc:Work>
    <dc:type rdf:resource="http://purl.org/dc/dcmitype/StillImage"/>
    <dc:date>2026-05-29T06:38:50.133586</dc:date>
    <dc:format>image/svg+xml</dc:format>
    <dc:creator>
     <cc:Agent>
      <dc:title>Matplotlib v3.10.9, https://matplotlib.org/</dc:title>
     </cc:Agent>
    </dc:creator>
   </cc:Work>
  </rdf:RDF>
 </metadata>
 <defs>
  <style type="text/css">*{stroke-linejoin: round; stroke-linecap: butt}</style>
 </defs>
 <g id="figure_1">
  <g id="patch_1">
   <path d="M 0 626.078437 
L 626.4 626.078437 
L 626.4 0 
L 0 0 
z
" style="fill: #ffffff"/>
  </g>
  <g id="axes_1">
   <g id="patch_2">
    <path d="M 306.936663 78.596604 
Q 237.879944 145.405089 191.481547 228.265208 
" clip-path="url(#pf1a8a77695)" style="fill: none; stroke: #888888; stroke-linecap: round"/>
    <path d="M 195.180897 225.75228 
L 191.481547 228.265208 
L 191.690814 223.797971 
z
" clip-path="url(#pf1a8a77695)" style="fill: #888888; stroke: #888888; stroke-linecap: round"/>
   </g>
   <g id="patch_3">
    <path d="M 314.068556 81.229445 
Q 322.397207 157.766275 351.530718 227.820406 
" clip-path="url(#pf1a8a77695)" style="fill: none; stroke: #888888; stroke-linecap: round"/>
    <path d="M 351.841434 223.359078 
L 351.530718 227.820406 
L 348.148085 224.895036 
z
" clip-path="url(#pf1a8a77695)" style="fill: #888888; stroke: #888888; stroke-linecap: round"/>
   </g>
   <g id="patch_4">
    <path d="M 317.382527 80.198907 
Q 364.327393 164.034363 432.580791 230.065297 
" clip-path="url(#pf1a8a77695)" style="fill: none; stroke: #888888; stroke-linecap: round"/>
    <path d="M 431.096564 225.84664 
L 432.580791 230.065297 
L 428.315329 228.721485 
z
" clip-path="url(#pf1a8a77695)" style="fill: #888888; stroke: #888888; stroke-linecap: round"/>
   </g>
   <g id="patch_5">
    <path d="M 309.812262 80.582823 
Q 280.249082 151.669186 272.041029 227.094452 
" clip-path="url(#pf1a8a77695)" style="fill: none; stroke: #888888; stroke-linecap: round"/>
    <path d="M 274.462031 223.334299 
L 272.041029 227.094452 
L 270.485507 222.901559 
z
" clip-path="url(#pf1a8a77695)" style="fill: #888888; stroke: #888888; stroke-linecap: round"/>
   </g>
   <g id="patch_6">
    <path d="M 193.203163 242.596019 
Q 300.784582 338.040374 430.723406 397.022611 
" clip-path="url(#pf1a8a77695)" style="fill: none; stroke: #888888; stroke-linecap: round"/>
    <path d="M 427.907753 393.548118 
L 430.723406 397.022611 
L 426.254421 397.190437 
z
" clip-path="url(#pf1a8a77695)" style="fill: #888888; stroke: #888888; stroke-linecap: round"/>
   </g>
   <g id="patch_7">
    <path d="M 354.050316 245.384549 
Q 343.510757 318.925541 353.891356 391.359806 
" clip-path="url(#pf1a8a77695)" style="fill: none; stroke: #888888; stroke-linecap: round"/>
    <path d="M 355.303684 387.116537 
L 353.891356 391.359806 
L 351.344138 387.683982 
z
" clip-path="url(#pf1a8a77695)" style="fill: #888888; stroke: #888888; stroke-linecap: round"/>
   </g>
   <g id="patch_8">
    <path d="M 348.297757 241.848547 
Q 258.835331 306.384288 192.641456 393.225209 
" clip-path="url(#pf1a8a77695)" style="fill: none; stroke: #888888; stroke-linecap: round"/>
    <path d="M 196.656914 391.256427 
L 192.641456 393.225209 
L 193.475705 388.831574 
z
" clip-path="url(#pf1a8a77695)" style="fill: #888888; stroke: #888888; stroke-linecap: round"/>
   </g>
   <g id="patch_9">
    <path d="M 432.595278 241.848547 
Q 343.132852 306.384288 276.938977 393.225209 
" clip-path="url(#pf1a8a77695)" style="fill: none; stroke: #888888; stroke-linecap: round"/>
    <path d="M 280.954434 391.256427 
L 276.938977 393.225209 
L 277.773226 388.831574 
z
" clip-path="url(#pf1a8a77695)" style="fill: #888888; stroke: #888888; stroke-linecap: round"/>
   </g>
   <g id="patch_10">
    <path d="M 351.961022 408.99844 
Q 322.397842 480.084803 314.18979 555.510069 
" clip-path="url(#pf1a8a77695)" style="fill: none; stroke: #888888; stroke-linecap: round"/>
    <path d="M 316.610791 551.749915 
L 314.18979 555.510069 
L 312.634268 551.317176 
z
" clip-path="url(#pf1a8a77695)" style="fill: #888888; stroke: #888888; stroke-linecap: round"/>
   </g>
   <g id="patch_11">
    <path d="M 356.217316 409.645062 
Q 364.545967 486.181891 393.679478 556.236023 
" clip-path="url(#pf1a8a77695)" style="fill: none; stroke: #888888; stroke-linecap: round"/>
    <path d="M 393.990195 551.774694 
L 393.679478 556.236023 
L 390.296845 553.310652 
z
" clip-path="url(#pf1a8a77695)" style="fill: #888888; stroke: #888888; stroke-linecap: round"/>
   </g>
   <g id="patch_12">
    <path d="M 359.531288 408.614523 
Q 406.476154 492.449979 474.729552 558.480914 
" clip-path="url(#pf1a8a77695)" style="fill: none; stroke: #888888; stroke-linecap: round"/>
    <path d="M 473.245324 554.262257 
L 474.729552 558.480914 
L 470.464089 557.137102 
z
" clip-path="url(#pf1a8a77695)" style="fill: #888888; stroke: #888888; stroke-linecap: round"/>
   </g>
   <g id="patch_13">
    <path d="M 347.784482 405.24459 
Q 237.655722 467.319912 151.312105 558.122041 
" clip-path="url(#pf1a8a77695)" style="fill: none; stroke: #888888; stroke-linecap: round"/>
    <path d="M 155.51782 556.601528 
L 151.312105 558.122041 
L 152.619123 553.845161 
z
" clip-path="url(#pf1a8a77695)" style="fill: #888888; stroke: #888888; stroke-linecap: round"/>
   </g>
   <g id="patch_14">
    <path d="M 443.828808 408.614523 
Q 490.773674 492.449979 559.027072 558.480914 
" clip-path="url(#pf1a8a77695)" style="fill: none; stroke: #888888; stroke-linecap: round"/>
    <path d="M 557.542845 554.262257 
L 559.027072 558.480914 
L 554.76161 557.137102 
z
" clip-path="url(#pf1a8a77695)" style="fill: #888888; stroke: #888888; stroke-linecap: round"/>
   </g>
   <g id="patch_15">
    <path d="M 431.261956 403.199264 
Q 237.373791 454.017494 68.575216 560.013692 
" clip-path="url(#pf1a8a77695)" style="fill: none; stroke: #888888; stroke-linecap: round"/>
    <path d="M 73.0263 559.580278 
L 68.575216 560.013692 
L 70.899136 556.192776 
z
" clip-path="url(#pf1a8a77695)" style="fill: #888888; stroke: #888888; stroke-linecap: round"/>
   </g>
   <g id="patch_16">
    <path d="M 431.082241 399.730037 
Q 355.347355 388.843517 280.719127 399.571358 
" clip-path="url(#pf1a8a77695)" style="fill: none; stroke: #888888; stroke-linecap: round"/>
    <path d="M 284.963004 400.981858 
L 280.719127 399.571358 
L 284.393852 397.022556 
z
" clip-path="url(#pf1a8a77695)" style="fill: #888888; stroke: #888888; stroke-linecap: round"/>
   </g>
   <g id="patch_17">
    <path d="M 560.157351 558.933838 
Q 473.043506 467.321242 363.88891 405.794655 
" clip-path="url(#pf1a8a77695)" style="fill: none; stroke: #888888; stroke-linecap: round"/>
    <path d="M 366.391413 409.501065 
L 363.88891 405.794655 
L 368.355541 406.016498 
z
" clip-path="url(#pf1a8a77695)" style="fill: #888888; stroke: #888888; stroke-linecap: round"/>
   </g>
   <g id="patch_18">
    <path d="M 68.866332 566.573151 
Q 228.903292 590.879155 387.834895 566.740784 
" clip-path="url(#pf1a8a77695)" style="fill: none; stroke: #888888; stroke-linecap: round"/>
    <path d="M 383.579932 565.364088 
L 387.834895 566.740784 
L 384.18056 569.318737 
z
" clip-path="url(#pf1a8a77695)" style="fill: #888888; stroke: #888888; stroke-linecap: round"/>
   </g>
   <g id="patch_19">
    <path d="M 66.570775 559.256947 
Q 135.627494 492.448462 182.025891 409.588342 
" clip-path="url(#pf1a8a77695)" style="fill: none; stroke: #888888; stroke-linecap: round"/>
    <path d="M 178.326541 412.101271 
L 182.025891 409.588342 
L 181.816624 414.05558 
z
" clip-path="url(#pf1a8a77695)" style="fill: #888888; stroke: #888888; stroke-linecap: round"/>
   </g>
   <g id="patch_20">
    <path d="M 68.881768 566.470838 
Q 102.456665 570.749998 134.922501 566.612074 
" clip-path="url(#pf1a8a77695)" style="fill: none; stroke: #888888; stroke-linecap: round"/>
    <path d="M 130.701736 565.133852 
L 134.922501 566.612074 
L 131.207463 569.101753 
z
" clip-path="url(#pf1a8a77695)" style="fill: #888888; stroke: #888888; stroke-linecap: round"/>
   </g>
   <g id="patch_21">
    <path d="M 193.580421 406.357028 
Q 321.786914 505.572369 472.623988 561.853149 
" clip-path="url(#pf1a8a77695)" style="fill: none; stroke: #888888; stroke-linecap: round"/>
    <path d="M 469.575526 558.581012 
L 472.623988 561.853149 
L 468.177202 562.328636 
z
" clip-path="url(#pf1a8a77695)" style="fill: #888888; stroke: #888888; stroke-linecap: round"/>
   </g>
   <g id="patch_22">
    <path d="M 195.308755 402.35318 
Q 313.1993 419.939479 429.984046 402.518345 
" clip-path="url(#pf1a8a77695)" style="fill: none; stroke: #888888; stroke-linecap: round"/>
    <path d="M 425.732741 401.130394 
L 429.984046 402.518345 
L 426.322903 405.086619 
z
" clip-path="url(#pf1a8a77695)" style="fill: #888888; stroke: #888888; stroke-linecap: round"/>
   </g>
   <g id="patch_23">
    <path d="M 180.490382 407.012221 
Q 111.433663 473.820705 65.035266 556.680825 
" clip-path="url(#pf1a8a77695)" style="fill: none; stroke: #888888; stroke-linecap: round"/>
    <path d="M 68.734616 554.167896 
L 65.035266 556.680825 
L 65.244533 552.213588 
z
" clip-path="url(#pf1a8a77695)" style="fill: #888888; stroke: #888888; stroke-linecap: round"/>
   </g>
   <g id="patch_24">
    <path d="M 267.663502 408.99844 
Q 238.100321 480.084803 229.892269 555.510069 
" clip-path="url(#pf1a8a77695)" style="fill: none; stroke: #888888; stroke-linecap: round"/>
    <path d="M 232.31327 551.749915 
L 229.892269 555.510069 
L 228.336747 551.317176 
z
" clip-path="url(#pf1a8a77695)" style="fill: #888888; stroke: #888888; stroke-linecap: round"/>
   </g>
   <g id="patch_25">
    <path d="M 275.233767 408.614523 
Q 322.178633 492.449979 390.432031 558.480914 
" clip-path="url(#pf1a8a77695)" style="fill: none; stroke: #888888; stroke-linecap: round"/>
    <path d="M 388.947803 554.262257 
L 390.432031 558.480914 
L 386.166569 557.137102 
z
" clip-path="url(#pf1a8a77695)" style="fill: #888888; stroke: #888888; stroke-linecap: round"/>
   </g>
   <g id="patch_26">
    <path d="M 273.798406 245.033865 
Q 301.22511 325.073852 349.629386 393.101102 
" clip-path="url(#pf1a8a77695)" style="fill: none; stroke: #888888; stroke-linecap: round"/>
    <path d="M 348.939936 388.682431 
L 349.629386 393.101102 
L 345.680779 391.001459 
z
" clip-path="url(#pf1a8a77695)" style="fill: #888888; stroke: #888888; stroke-linecap: round"/>
   </g>
   <g id="patch_27">
    <path d="M 220.33844 563.937845 
Q 144.603553 553.051325 69.975325 563.779166 
" clip-path="url(#pf1a8a77695)" style="fill: none; stroke: #888888; stroke-linecap: round"/>
    <path d="M 74.219202 565.189666 
L 69.975325 563.779166 
L 73.650051 561.230364 
z
" clip-path="url(#pf1a8a77695)" style="fill: #888888; stroke: #888888; stroke-linecap: round"/>
   </g>
   <g id="text_1">
    <g id="patch_28">
     <path d="M 243.257848 159.424165 
L 256.69316 159.424165 
Q 258.49316 159.424165 258.49316 157.624165 
L 258.49316 151.81729 
Q 258.49316 150.01729 256.69316 150.01729 
L 243.257848 150.01729 
Q 241.457848 150.01729 241.457848 151.81729 
L 241.457848 157.624165 
Q 241.457848 159.424165 243.257848 159.424165 
z
" clip-path="url(#pf1a8a77695)" style="fill: #ffffff; stroke: #ffffff; stroke-linejoin: miter"/>
    </g>
    <g clip-path="url(#pf1a8a77695)">
     <!-- calls -->
     <g transform="translate(243.257848 156.376352) scale(0.06 -0.06)">
      <defs>
       <path id="DejaVuSans-63" d="M 3122 3366 
L 3122 2828 
Q 2878 2963 2633 3030 
Q 2388 3097 2138 3097 
Q 1578 3097 1268 2742 
Q 959 2388 959 1747 
Q 959 1106 1268 751 
Q 1578 397 2138 397 
Q 2388 397 2633 464 
Q 2878 531 3122 666 
L 3122 134 
Q 2881 22 2623 -34 
Q 2366 -91 2075 -91 
Q 1284 -91 818 406 
Q 353 903 353 1747 
Q 353 2603 823 3093 
Q 1294 3584 2113 3584 
Q 2378 3584 2631 3529 
Q 2884 3475 3122 3366 
z
" transform="scale(0.015625)"/>
       <path id="DejaVuSans-61" d="M 2194 1759 
Q 1497 1759 1228 1600 
Q 959 1441 959 1056 
Q 959 750 1161 570 
Q 1363 391 1709 391 
Q 2188 391 2477 730 
Q 2766 1069 2766 1631 
L 2766 1759 
L 2194 1759 
z
M 3341 1997 
L 3341 0 
L 2766 0 
L 2766 531 
Q 2569 213 2275 61 
Q 1981 -91 1556 -91 
Q 1019 -91 701 211 
Q 384 513 384 1019 
Q 384 1609 779 1909 
Q 1175 2209 1959 2209 
L 2766 2209 
L 2766 2266 
Q 2766 2663 2505 2880 
Q 2244 3097 1772 3097 
Q 1472 3097 1187 3025 
Q 903 2953 641 2809 
L 641 3341 
Q 956 3463 1253 3523 
Q 1550 3584 1831 3584 
Q 2591 3584 2966 3190 
Q 3341 2797 3341 1997 
z
" transform="scale(0.015625)"/>
       <path id="DejaVuSans-6c" d="M 603 4863 
L 1178 4863 
L 1178 0 
L 603 0 
L 603 4863 
z
" transform="scale(0.015625)"/>
       <path id="DejaVuSans-73" d="M 2834 3397 
L 2834 2853 
Q 2591 2978 2328 3040 
Q 2066 3103 1784 3103 
Q 1356 3103 1142 2972 
Q 928 2841 928 2578 
Q 928 2378 1081 2264 
Q 1234 2150 1697 2047 
L 1894 2003 
Q 2506 1872 2764 1633 
Q 3022 1394 3022 966 
Q 3022 478 2636 193 
Q 2250 -91 1575 -91 
Q 1294 -91 989 -36 
Q 684 19 347 128 
L 347 722 
Q 666 556 975 473 
Q 1284 391 1588 391 
Q 1994 391 2212 530 
Q 2431 669 2431 922 
Q 2431 1156 2273 1281 
Q 2116 1406 1581 1522 
L 1381 1569 
Q 847 1681 609 1914 
Q 372 2147 372 2553 
Q 372 3047 722 3315 
Q 1072 3584 1716 3584 
Q 2034 3584 2315 3537 
Q 2597 3491 2834 3397 
z
" transform="scale(0.015625)"/>
      </defs>
      <use xlink:href="#DejaVuSans-63"/>
      <use xlink:href="#DejaVuSans-61" transform="translate(54.980469 0)"/>
      <use xlink:href="#DejaVuSans-6c" transform="translate(116.259766 0)"/>
      <use xlink:href="#DejaVuSans-6c" transform="translate(144.042969 0)"/>
      <use xlink:href="#DejaVuSans-73" transform="translate(171.826172 0)"/>
     </g>
    </g>
   </g>
   <g id="text_2">
    <g id="patch_29">
     <path d="M 322.806758 159.423754 
L 345.742695 159.423754 
Q 347.542695 159.423754 347.542695 157.623754 
L 347.542695 151.816879 
Q 347.542695 150.016879 345.742695 150.016879 
L 322.806758 150.016879 
Q 321.006758 150.016879 321.006758 151.816879 
L 321.006758 157.623754 
Q 321.006758 159.423754 322.806758 159.423754 
z
" clip-path="url(#pf1a8a77695)" style="fill: #ffffff; stroke: #ffffff; stroke-linejoin: miter"/>
    </g>
    <g clip-path="url(#pf1a8a77695)">
     <!-- imports -->
     <g transform="translate(322.806758 156.375942) scale(0.06 -0.06)">
      <defs>
       <path id="DejaVuSans-69" d="M 603 3500 
L 1178 3500 
L 1178 0 
L 603 0 
L 603 3500 
z
M 603 4863 
L 1178 4863 
L 1178 4134 
L 603 4134 
L 603 4863 
z
" transform="scale(0.015625)"/>
       <path id="DejaVuSans-6d" d="M 3328 2828 
Q 3544 3216 3844 3400 
Q 4144 3584 4550 3584 
Q 5097 3584 5394 3201 
Q 5691 2819 5691 2113 
L 5691 0 
L 5113 0 
L 5113 2094 
Q 5113 2597 4934 2840 
Q 4756 3084 4391 3084 
Q 3944 3084 3684 2787 
Q 3425 2491 3425 1978 
L 3425 0 
L 2847 0 
L 2847 2094 
Q 2847 2600 2669 2842 
Q 2491 3084 2119 3084 
Q 1678 3084 1418 2786 
Q 1159 2488 1159 1978 
L 1159 0 
L 581 0 
L 581 3500 
L 1159 3500 
L 1159 2956 
Q 1356 3278 1631 3431 
Q 1906 3584 2284 3584 
Q 2666 3584 2933 3390 
Q 3200 3197 3328 2828 
z
" transform="scale(0.015625)"/>
       <path id="DejaVuSans-70" d="M 1159 525 
L 1159 -1331 
L 581 -1331 
L 581 3500 
L 1159 3500 
L 1159 2969 
Q 1341 3281 1617 3432 
Q 1894 3584 2278 3584 
Q 2916 3584 3314 3078 
Q 3713 2572 3713 1747 
Q 3713 922 3314 415 
Q 2916 -91 2278 -91 
Q 1894 -91 1617 61 
Q 1341 213 1159 525 
z
M 3116 1747 
Q 3116 2381 2855 2742 
Q 2594 3103 2138 3103 
Q 1681 3103 1420 2742 
Q 1159 2381 1159 1747 
Q 1159 1113 1420 752 
Q 1681 391 2138 391 
Q 2594 391 2855 752 
Q 3116 1113 3116 1747 
z
" transform="scale(0.015625)"/>
       <path id="DejaVuSans-6f" d="M 1959 3097 
Q 1497 3097 1228 2736 
Q 959 2375 959 1747 
Q 959 1119 1226 758 
Q 1494 397 1959 397 
Q 2419 397 2687 759 
Q 2956 1122 2956 1747 
Q 2956 2369 2687 2733 
Q 2419 3097 1959 3097 
z
M 1959 3584 
Q 2709 3584 3137 3096 
Q 3566 2609 3566 1747 
Q 3566 888 3137 398 
Q 2709 -91 1959 -91 
Q 1206 -91 779 398 
Q 353 888 353 1747 
Q 353 2609 779 3096 
Q 1206 3584 1959 3584 
z
" transform="scale(0.015625)"/>
       <path id="DejaVuSans-72" d="M 2631 2963 
Q 2534 3019 2420 3045 
Q 2306 3072 2169 3072 
Q 1681 3072 1420 2755 
Q 1159 2438 1159 1844 
L 1159 0 
L 581 0 
L 581 3500 
L 1159 3500 
L 1159 2956 
Q 1341 3275 1631 3429 
Q 1922 3584 2338 3584 
Q 2397 3584 2469 3576 
Q 2541 3569 2628 3553 
L 2631 2963 
z
" transform="scale(0.015625)"/>
       <path id="DejaVuSans-74" d="M 1172 4494 
L 1172 3500 
L 2356 3500 
L 2356 3053 
L 1172 3053 
L 1172 1153 
Q 1172 725 1289 603 
Q 1406 481 1766 481 
L 2356 481 
L 2356 0 
L 1766 0 
Q 1100 0 847 248 
Q 594 497 594 1153 
L 594 3053 
L 172 3053 
L 172 3500 
L 594 3500 
L 594 4494 
L 1172 4494 
z
" transform="scale(0.015625)"/>
      </defs>
      <use xlink:href="#DejaVuSans-69"/>
      <use xlink:href="#DejaVuSans-6d" transform="translate(27.783203 0)"/>
      <use xlink:href="#DejaVuSans-70" transform="translate(125.195312 0)"/>
      <use xlink:href="#DejaVuSans-6f" transform="translate(188.671875 0)"/>
      <use xlink:href="#DejaVuSans-72" transform="translate(249.853516 0)"/>
      <use xlink:href="#DejaVuSans-74" transform="translate(290.966797 0)"/>
      <use xlink:href="#DejaVuSans-73" transform="translate(330.175781 0)"/>
     </g>
    </g>
   </g>
   <g id="text_3">
    <g id="patch_30">
     <path d="M 364.464808 159.424165 
L 388.384183 159.424165 
Q 390.184183 159.424165 390.184183 157.624165 
L 390.184183 151.81729 
Q 390.184183 150.01729 388.384183 150.01729 
L 364.464808 150.01729 
Q 362.664808 150.01729 362.664808 151.81729 
L 362.664808 157.624165 
Q 362.664808 159.424165 364.464808 159.424165 
z
" clip-path="url(#pf1a8a77695)" style="fill: #ffffff; stroke: #ffffff; stroke-linejoin: miter"/>
    </g>
    <g clip-path="url(#pf1a8a77695)">
     <!-- extends -->
     <g transform="translate(364.464808 156.376352) scale(0.06 -0.06)">
      <defs>
       <path id="DejaVuSans-65" d="M 3597 1894 
L 3597 1613 
L 953 1613 
Q 991 1019 1311 708 
Q 1631 397 2203 397 
Q 2534 397 2845 478 
Q 3156 559 3463 722 
L 3463 178 
Q 3153 47 2828 -22 
Q 2503 -91 2169 -91 
Q 1331 -91 842 396 
Q 353 884 353 1716 
Q 353 2575 817 3079 
Q 1281 3584 2069 3584 
Q 2775 3584 3186 3129 
Q 3597 2675 3597 1894 
z
M 3022 2063 
Q 3016 2534 2758 2815 
Q 2500 3097 2075 3097 
Q 1594 3097 1305 2825 
Q 1016 2553 972 2059 
L 3022 2063 
z
" transform="scale(0.015625)"/>
       <path id="DejaVuSans-78" d="M 3513 3500 
L 2247 1797 
L 3578 0 
L 2900 0 
L 1881 1375 
L 863 0 
L 184 0 
L 1544 1831 
L 300 3500 
L 978 3500 
L 1906 2253 
L 2834 3500 
L 3513 3500 
z
" transform="scale(0.015625)"/>
       <path id="DejaVuSans-6e" d="M 3513 2113 
L 3513 0 
L 2938 0 
L 2938 2094 
Q 2938 2591 2744 2837 
Q 2550 3084 2163 3084 
Q 1697 3084 1428 2787 
Q 1159 2491 1159 1978 
L 1159 0 
L 581 0 
L 581 3500 
L 1159 3500 
L 1159 2956 
Q 1366 3272 1645 3428 
Q 1925 3584 2291 3584 
Q 2894 3584 3203 3211 
Q 3513 2838 3513 2113 
z
" transform="scale(0.015625)"/>
       <path id="DejaVuSans-64" d="M 2906 2969 
L 2906 4863 
L 3481 4863 
L 3481 0 
L 2906 0 
L 2906 525 
Q 2725 213 2448 61 
Q 2172 -91 1784 -91 
Q 1150 -91 751 415 
Q 353 922 353 1747 
Q 353 2572 751 3078 
Q 1150 3584 1784 3584 
Q 2172 3584 2448 3432 
Q 2725 3281 2906 2969 
z
M 947 1747 
Q 947 1113 1208 752 
Q 1469 391 1925 391 
Q 2381 391 2643 752 
Q 2906 1113 2906 1747 
Q 2906 2381 2643 2742 
Q 2381 3103 1925 3103 
Q 1469 3103 1208 2742 
Q 947 2381 947 1747 
z
" transform="scale(0.015625)"/>
      </defs>
      <use xlink:href="#DejaVuSans-65"/>
      <use xlink:href="#DejaVuSans-78" transform="translate(59.773438 0)"/>
      <use xlink:href="#DejaVuSans-74" transform="translate(118.953125 0)"/>
      <use xlink:href="#DejaVuSans-65" transform="translate(158.162109 0)"/>
      <use xlink:href="#DejaVuSans-6e" transform="translate(219.685547 0)"/>
      <use xlink:href="#DejaVuSans-64" transform="translate(283.064453 0)"/>
      <use xlink:href="#DejaVuSans-73" transform="translate(346.541016 0)"/>
     </g>
    </g>
   </g>
   <g id="text_4">
    <g id="patch_31">
     <path d="M 343.880792 323.629632 
L 366.816729 323.629632 
Q 368.616729 323.629632 368.616729 321.829632 
L 368.616729 316.022757 
Q 368.616729 314.222757 366.816729 314.222757 
L 343.880792 314.222757 
Q 342.080792 314.222757 342.080792 316.022757 
L 342.080792 321.829632 
Q 342.080792 323.629632 343.880792 323.629632 
z
" clip-path="url(#pf1a8a77695)" style="fill: #ffffff; stroke: #ffffff; stroke-linejoin: miter"/>
    </g>
    <g clip-path="url(#pf1a8a77695)">
     <!-- imports -->
     <g transform="translate(343.880792 320.581819) scale(0.06 -0.06)">
      <use xlink:href="#DejaVuSans-69"/>
      <use xlink:href="#DejaVuSans-6d" transform="translate(27.783203 0)"/>
      <use xlink:href="#DejaVuSans-70" transform="translate(125.195312 0)"/>
      <use xlink:href="#DejaVuSans-6f" transform="translate(188.671875 0)"/>
      <use xlink:href="#DejaVuSans-72" transform="translate(249.853516 0)"/>
      <use xlink:href="#DejaVuSans-74" transform="translate(290.966797 0)"/>
      <use xlink:href="#DejaVuSans-73" transform="translate(330.175781 0)"/>
     </g>
    </g>
   </g>
   <g id="text_5">
    <g id="patch_32">
     <path d="M 327.556378 487.83937 
L 340.99169 487.83937 
Q 342.79169 487.83937 342.79169 486.03937 
L 342.79169 480.232495 
Q 342.79169 478.432495 340.99169 478.432495 
L 327.556378 478.432495 
Q 325.756378 478.432495 325.756378 480.232495 
L 325.756378 486.03937 
Q 325.756378 487.83937 327.556378 487.83937 
z
" clip-path="url(#pf1a8a77695)" style="fill: #ffffff; stroke: #ffffff; stroke-linejoin: miter"/>
    </g>
    <g clip-path="url(#pf1a8a77695)">
     <!-- calls -->
     <g transform="translate(327.556378 484.791558) scale(0.06 -0.06)">
      <use xlink:href="#DejaVuSans-63"/>
      <use xlink:href="#DejaVuSans-61" transform="translate(54.980469 0)"/>
      <use xlink:href="#DejaVuSans-6c" transform="translate(116.259766 0)"/>
      <use xlink:href="#DejaVuSans-6c" transform="translate(144.042969 0)"/>
      <use xlink:href="#DejaVuSans-73" transform="translate(171.826172 0)"/>
     </g>
    </g>
   </g>
   <g id="text_6">
    <g id="patch_33">
     <path d="M 369.705831 487.83937 
L 383.141143 487.83937 
Q 384.941143 487.83937 384.941143 486.03937 
L 384.941143 480.232495 
Q 384.941143 478.432495 383.141143 478.432495 
L 369.705831 478.432495 
Q 367.905831 478.432495 367.905831 480.232495 
L 367.905831 486.03937 
Q 367.905831 487.83937 369.705831 487.83937 
z
" clip-path="url(#pf1a8a77695)" style="fill: #ffffff; stroke: #ffffff; stroke-linejoin: miter"/>
    </g>
    <g clip-path="url(#pf1a8a77695)">
     <!-- calls -->
     <g transform="translate(369.705831 484.791558) scale(0.06 -0.06)">
      <use xlink:href="#DejaVuSans-63"/>
      <use xlink:href="#DejaVuSans-61" transform="translate(54.980469 0)"/>
      <use xlink:href="#DejaVuSans-6c" transform="translate(116.259766 0)"/>
      <use xlink:href="#DejaVuSans-6c" transform="translate(144.042969 0)"/>
      <use xlink:href="#DejaVuSans-73" transform="translate(171.826172 0)"/>
     </g>
    </g>
   </g>
   <g id="text_7">
    <g id="patch_34">
     <path d="M 406.613569 487.839781 
L 430.532944 487.839781 
Q 432.332944 487.839781 432.332944 486.039781 
L 432.332944 480.232906 
Q 432.332944 478.432906 430.532944 478.432906 
L 406.613569 478.432906 
Q 404.813569 478.432906 404.813569 480.232906 
L 404.813569 486.039781 
Q 404.813569 487.839781 406.613569 487.839781 
z
" clip-path="url(#pf1a8a77695)" style="fill: #ffffff; stroke: #ffffff; stroke-linejoin: miter"/>
    </g>
    <g clip-path="url(#pf1a8a77695)">
     <!-- extends -->
     <g transform="translate(406.613569 484.791969) scale(0.06 -0.06)">
      <use xlink:href="#DejaVuSans-65"/>
      <use xlink:href="#DejaVuSans-78" transform="translate(59.773438 0)"/>
      <use xlink:href="#DejaVuSans-74" transform="translate(118.953125 0)"/>
      <use xlink:href="#DejaVuSans-65" transform="translate(158.162109 0)"/>
      <use xlink:href="#DejaVuSans-6e" transform="translate(219.685547 0)"/>
      <use xlink:href="#DejaVuSans-64" transform="translate(283.064453 0)"/>
      <use xlink:href="#DejaVuSans-73" transform="translate(346.541016 0)"/>
     </g>
    </g>
   </g>
   <g id="text_8">
    <g id="patch_35">
     <path d="M 301.735223 323.632286 
L 324.671161 323.632286 
Q 326.471161 323.632286 326.471161 321.832286 
L 326.471161 316.025411 
Q 326.471161 314.225411 324.671161 314.225411 
L 301.735223 314.225411 
Q 299.935223 314.225411 299.935223 316.025411 
L 299.935223 321.832286 
Q 299.935223 323.632286 301.735223 323.632286 
z
" clip-path="url(#pf1a8a77695)" style="fill: #ffffff; stroke: #ffffff; stroke-linejoin: miter"/>
    </g>
    <g clip-path="url(#pf1a8a77695)">
     <!-- imports -->
     <g transform="translate(301.735223 320.584473) scale(0.06 -0.06)">
      <use xlink:href="#DejaVuSans-69"/>
      <use xlink:href="#DejaVuSans-6d" transform="translate(27.783203 0)"/>
      <use xlink:href="#DejaVuSans-70" transform="translate(125.195312 0)"/>
      <use xlink:href="#DejaVuSans-6f" transform="translate(188.671875 0)"/>
      <use xlink:href="#DejaVuSans-72" transform="translate(249.853516 0)"/>
      <use xlink:href="#DejaVuSans-74" transform="translate(290.966797 0)"/>
      <use xlink:href="#DejaVuSans-73" transform="translate(330.175781 0)"/>
     </g>
    </g>
   </g>
   <g id="text_9">
    <g id="patch_36">
     <path d="M 491.402808 487.839781 
L 514.338746 487.839781 
Q 516.138746 487.839781 516.138746 486.039781 
L 516.138746 480.232906 
Q 516.138746 478.432906 514.338746 478.432906 
L 491.402808 478.432906 
Q 489.602808 478.432906 489.602808 480.232906 
L 489.602808 486.039781 
Q 489.602808 487.839781 491.402808 487.839781 
z
" clip-path="url(#pf1a8a77695)" style="fill: #ffffff; stroke: #ffffff; stroke-linejoin: miter"/>
    </g>
    <g clip-path="url(#pf1a8a77695)">
     <!-- imports -->
     <g transform="translate(491.402808 484.791969) scale(0.06 -0.06)">
      <use xlink:href="#DejaVuSans-69"/>
      <use xlink:href="#DejaVuSans-6d" transform="translate(27.783203 0)"/>
      <use xlink:href="#DejaVuSans-70" transform="translate(125.195312 0)"/>
      <use xlink:href="#DejaVuSans-6f" transform="translate(188.671875 0)"/>
      <use xlink:href="#DejaVuSans-72" transform="translate(249.853516 0)"/>
      <use xlink:href="#DejaVuSans-74" transform="translate(290.966797 0)"/>
      <use xlink:href="#DejaVuSans-73" transform="translate(330.175781 0)"/>
     </g>
    </g>
   </g>
   <g id="text_10">
    <g id="patch_37">
     <path d="M 238.016033 487.838514 
L 261.935408 487.838514 
Q 263.735408 487.838514 263.735408 486.038514 
L 263.735408 480.231639 
Q 263.735408 478.431639 261.935408 478.431639 
L 238.016033 478.431639 
Q 236.216033 478.431639 236.216033 480.231639 
L 236.216033 486.038514 
Q 236.216033 487.838514 238.016033 487.838514 
z
" clip-path="url(#pf1a8a77695)" style="fill: #ffffff; stroke: #ffffff; stroke-linejoin: miter"/>
    </g>
    <g clip-path="url(#pf1a8a77695)">
     <!-- extends -->
     <g transform="translate(238.016033 484.790702) scale(0.06 -0.06)">
      <use xlink:href="#DejaVuSans-65"/>
      <use xlink:href="#DejaVuSans-78" transform="translate(59.773438 0)"/>
      <use xlink:href="#DejaVuSans-74" transform="translate(118.953125 0)"/>
      <use xlink:href="#DejaVuSans-65" transform="translate(158.162109 0)"/>
      <use xlink:href="#DejaVuSans-6e" transform="translate(219.685547 0)"/>
      <use xlink:href="#DejaVuSans-64" transform="translate(283.064453 0)"/>
      <use xlink:href="#DejaVuSans-73" transform="translate(346.541016 0)"/>
     </g>
    </g>
   </g>
   <g id="text_11">
    <g id="patch_38">
     <path d="M 259.091446 323.630317 
L 283.010821 323.630317 
Q 284.810821 323.630317 284.810821 321.830317 
L 284.810821 316.023442 
Q 284.810821 314.223442 283.010821 314.223442 
L 259.091446 314.223442 
Q 257.291446 314.223442 257.291446 316.023442 
L 257.291446 321.830317 
Q 257.291446 323.630317 259.091446 323.630317 
z
" clip-path="url(#pf1a8a77695)" style="fill: #ffffff; stroke: #ffffff; stroke-linejoin: miter"/>
    </g>
    <g clip-path="url(#pf1a8a77695)">
     <!-- extends -->
     <g transform="translate(259.091446 320.582504) scale(0.06 -0.06)">
      <use xlink:href="#DejaVuSans-65"/>
      <use xlink:href="#DejaVuSans-78" transform="translate(59.773438 0)"/>
      <use xlink:href="#DejaVuSans-74" transform="translate(118.953125 0)"/>
      <use xlink:href="#DejaVuSans-65" transform="translate(158.162109 0)"/>
      <use xlink:href="#DejaVuSans-6e" transform="translate(219.685547 0)"/>
      <use xlink:href="#DejaVuSans-64" transform="translate(283.064453 0)"/>
      <use xlink:href="#DejaVuSans-73" transform="translate(346.541016 0)"/>
     </g>
    </g>
   </g>
   <g id="text_12">
    <g id="patch_39">
     <path d="M 343.388966 323.630317 
L 367.308341 323.630317 
Q 369.108341 323.630317 369.108341 321.830317 
L 369.108341 316.023442 
Q 369.108341 314.223442 367.308341 314.223442 
L 343.388966 314.223442 
Q 341.588966 314.223442 341.588966 316.023442 
L 341.588966 321.830317 
Q 341.588966 323.630317 343.388966 323.630317 
z
" clip-path="url(#pf1a8a77695)" style="fill: #ffffff; stroke: #ffffff; stroke-linejoin: miter"/>
    </g>
    <g clip-path="url(#pf1a8a77695)">
     <!-- extends -->
     <g transform="translate(343.388966 320.582504) scale(0.06 -0.06)">
      <use xlink:href="#DejaVuSans-65"/>
      <use xlink:href="#DejaVuSans-78" transform="translate(59.773438 0)"/>
      <use xlink:href="#DejaVuSans-74" transform="translate(118.953125 0)"/>
      <use xlink:href="#DejaVuSans-65" transform="translate(158.162109 0)"/>
      <use xlink:href="#DejaVuSans-6e" transform="translate(219.685547 0)"/>
      <use xlink:href="#DejaVuSans-64" transform="translate(283.064453 0)"/>
      <use xlink:href="#DejaVuSans-73" transform="translate(346.541016 0)"/>
     </g>
    </g>
   </g>
   <g id="text_13">
    <g id="patch_40">
     <path d="M 243.257318 487.83949 
L 256.69263 487.83949 
Q 258.49263 487.83949 258.49263 486.03949 
L 258.49263 480.232615 
Q 258.49263 478.432615 256.69263 478.432615 
L 243.257318 478.432615 
Q 241.457318 478.432615 241.457318 480.232615 
L 241.457318 486.03949 
Q 241.457318 487.83949 243.257318 487.83949 
z
" clip-path="url(#pf1a8a77695)" style="fill: #ffffff; stroke: #ffffff; stroke-linejoin: miter"/>
    </g>
    <g clip-path="url(#pf1a8a77695)">
     <!-- calls -->
     <g transform="translate(243.257318 484.791678) scale(0.06 -0.06)">
      <use xlink:href="#DejaVuSans-63"/>
      <use xlink:href="#DejaVuSans-61" transform="translate(54.980469 0)"/>
      <use xlink:href="#DejaVuSans-6c" transform="translate(116.259766 0)"/>
      <use xlink:href="#DejaVuSans-6c" transform="translate(144.042969 0)"/>
      <use xlink:href="#DejaVuSans-73" transform="translate(171.826172 0)"/>
     </g>
    </g>
   </g>
   <g id="text_14">
    <g id="patch_41">
     <path d="M 280.657305 159.423754 
L 303.593242 159.423754 
Q 305.393242 159.423754 305.393242 157.623754 
L 305.393242 151.816879 
Q 305.393242 150.016879 303.593242 150.016879 
L 280.657305 150.016879 
Q 278.857305 150.016879 278.857305 151.816879 
L 278.857305 157.623754 
Q 278.857305 159.423754 280.657305 159.423754 
z
" clip-path="url(#pf1a8a77695)" style="fill: #ffffff; stroke: #ffffff; stroke-linejoin: miter"/>
    </g>
    <g clip-path="url(#pf1a8a77695)">
     <!-- imports -->
     <g transform="translate(280.657305 156.375942) scale(0.06 -0.06)">
      <use xlink:href="#DejaVuSans-69"/>
      <use xlink:href="#DejaVuSans-6d" transform="translate(27.783203 0)"/>
      <use xlink:href="#DejaVuSans-70" transform="translate(125.195312 0)"/>
      <use xlink:href="#DejaVuSans-6f" transform="translate(188.671875 0)"/>
      <use xlink:href="#DejaVuSans-72" transform="translate(249.853516 0)"/>
      <use xlink:href="#DejaVuSans-74" transform="translate(290.966797 0)"/>
      <use xlink:href="#DejaVuSans-73" transform="translate(330.175781 0)"/>
     </g>
    </g>
   </g>
   <g id="text_15">
    <g id="patch_42">
     <path d="M 238.508544 487.83937 
L 261.444482 487.83937 
Q 263.244482 487.83937 263.244482 486.03937 
L 263.244482 480.232495 
Q 263.244482 478.432495 261.444482 478.432495 
L 238.508544 478.432495 
Q 236.708544 478.432495 236.708544 480.232495 
L 236.708544 486.03937 
Q 236.708544 487.83937 238.508544 487.83937 
z
" clip-path="url(#pf1a8a77695)" style="fill: #ffffff; stroke: #ffffff; stroke-linejoin: miter"/>
    </g>
    <g clip-path="url(#pf1a8a77695)">
     <!-- imports -->
     <g transform="translate(238.508544 484.791558) scale(0.06 -0.06)">
      <use xlink:href="#DejaVuSans-69"/>
      <use xlink:href="#DejaVuSans-6d" transform="translate(27.783203 0)"/>
      <use xlink:href="#DejaVuSans-70" transform="translate(125.195312 0)"/>
      <use xlink:href="#DejaVuSans-6f" transform="translate(188.671875 0)"/>
      <use xlink:href="#DejaVuSans-72" transform="translate(249.853516 0)"/>
      <use xlink:href="#DejaVuSans-74" transform="translate(290.966797 0)"/>
      <use xlink:href="#DejaVuSans-73" transform="translate(330.175781 0)"/>
     </g>
    </g>
   </g>
   <g id="text_16">
    <g id="patch_43">
     <path d="M 348.631894 405.734117 
L 362.067206 405.734117 
Q 363.867206 405.734117 363.867206 403.934117 
L 363.867206 398.127242 
Q 363.867206 396.327242 362.067206 396.327242 
L 348.631894 396.327242 
Q 346.831894 396.327242 346.831894 398.127242 
L 346.831894 403.934117 
Q 346.831894 405.734117 348.631894 405.734117 
z
" clip-path="url(#pf1a8a77695)" style="fill: #ffffff; stroke: #ffffff; stroke-linejoin: miter"/>
    </g>
    <g clip-path="url(#pf1a8a77695)">
     <!-- calls -->
     <g transform="translate(348.631894 402.686305) scale(0.06 -0.06)">
      <use xlink:href="#DejaVuSans-63"/>
      <use xlink:href="#DejaVuSans-61" transform="translate(54.980469 0)"/>
      <use xlink:href="#DejaVuSans-6c" transform="translate(116.259766 0)"/>
      <use xlink:href="#DejaVuSans-6c" transform="translate(144.042969 0)"/>
      <use xlink:href="#DejaVuSans-73" transform="translate(171.826172 0)"/>
     </g>
    </g>
   </g>
   <g id="text_17">
    <g id="patch_44">
     <path d="M 448.759088 487.836552 
L 472.678463 487.836552 
Q 474.478463 487.836552 474.478463 486.036552 
L 474.478463 480.229677 
Q 474.478463 478.429677 472.678463 478.429677 
L 448.759088 478.429677 
Q 446.959088 478.429677 446.959088 480.229677 
L 446.959088 486.036552 
Q 446.959088 487.836552 448.759088 487.836552 
z
" clip-path="url(#pf1a8a77695)" style="fill: #ffffff; stroke: #ffffff; stroke-linejoin: miter"/>
    </g>
    <g clip-path="url(#pf1a8a77695)">
     <!-- extends -->
     <g transform="translate(448.759088 484.788739) scale(0.06 -0.06)">
      <use xlink:href="#DejaVuSans-65"/>
      <use xlink:href="#DejaVuSans-78" transform="translate(59.773438 0)"/>
      <use xlink:href="#DejaVuSans-74" transform="translate(118.953125 0)"/>
      <use xlink:href="#DejaVuSans-65" transform="translate(158.162109 0)"/>
      <use xlink:href="#DejaVuSans-6e" transform="translate(219.685547 0)"/>
      <use xlink:href="#DejaVuSans-64" transform="translate(283.064453 0)"/>
      <use xlink:href="#DejaVuSans-73" transform="translate(346.541016 0)"/>
     </g>
    </g>
   </g>
   <g id="text_18">
    <g id="patch_45">
     <path d="M 217.435479 569.941925 
L 240.371416 569.941925 
Q 242.171416 569.941925 242.171416 568.141925 
L 242.171416 562.33505 
Q 242.171416 560.53505 240.371416 560.53505 
L 217.435479 560.53505 
Q 215.635479 560.53505 215.635479 562.33505 
L 215.635479 568.141925 
Q 215.635479 569.941925 217.435479 569.941925 
z
" clip-path="url(#pf1a8a77695)" style="fill: #ffffff; stroke: #ffffff; stroke-linejoin: miter"/>
    </g>
    <g clip-path="url(#pf1a8a77695)">
     <!-- imports -->
     <g transform="translate(217.435479 566.894113) scale(0.06 -0.06)">
      <use xlink:href="#DejaVuSans-69"/>
      <use xlink:href="#DejaVuSans-6d" transform="translate(27.783203 0)"/>
      <use xlink:href="#DejaVuSans-70" transform="translate(125.195312 0)"/>
      <use xlink:href="#DejaVuSans-6f" transform="translate(188.671875 0)"/>
      <use xlink:href="#DejaVuSans-72" transform="translate(249.853516 0)"/>
      <use xlink:href="#DejaVuSans-74" transform="translate(290.966797 0)"/>
      <use xlink:href="#DejaVuSans-73" transform="translate(330.175781 0)"/>
     </g>
    </g>
   </g>
   <g id="text_19">
    <g id="patch_46">
     <path d="M 116.814278 487.836261 
L 130.24959 487.836261 
Q 132.04959 487.836261 132.04959 486.036261 
L 132.04959 480.229386 
Q 132.04959 478.429386 130.24959 478.429386 
L 116.814278 478.429386 
Q 115.014278 478.429386 115.014278 480.229386 
L 115.014278 486.036261 
Q 115.014278 487.836261 116.814278 487.836261 
z
" clip-path="url(#pf1a8a77695)" style="fill: #ffffff; stroke: #ffffff; stroke-linejoin: miter"/>
    </g>
    <g clip-path="url(#pf1a8a77695)">
     <!-- calls -->
     <g transform="translate(116.814278 484.788448) scale(0.06 -0.06)">
      <use xlink:href="#DejaVuSans-63"/>
      <use xlink:href="#DejaVuSans-61" transform="translate(54.980469 0)"/>
      <use xlink:href="#DejaVuSans-6c" transform="translate(116.259766 0)"/>
      <use xlink:href="#DejaVuSans-6c" transform="translate(144.042969 0)"/>
      <use xlink:href="#DejaVuSans-73" transform="translate(171.826172 0)"/>
     </g>
    </g>
   </g>
   <g id="text_20">
    <g id="patch_47">
     <path d="M 90.499498 569.941925 
L 114.418873 569.941925 
Q 116.218873 569.941925 116.218873 568.141925 
L 116.218873 562.33505 
Q 116.218873 560.53505 114.418873 560.53505 
L 90.499498 560.53505 
Q 88.699498 560.53505 88.699498 562.33505 
L 88.699498 568.141925 
Q 88.699498 569.941925 90.499498 569.941925 
z
" clip-path="url(#pf1a8a77695)" style="fill: #ffffff; stroke: #ffffff; stroke-linejoin: miter"/>
    </g>
    <g clip-path="url(#pf1a8a77695)">
     <!-- extends -->
     <g transform="translate(90.499498 566.894113) scale(0.06 -0.06)">
      <use xlink:href="#DejaVuSans-65"/>
      <use xlink:href="#DejaVuSans-78" transform="translate(59.773438 0)"/>
      <use xlink:href="#DejaVuSans-74" transform="translate(118.953125 0)"/>
      <use xlink:href="#DejaVuSans-65" transform="translate(158.162109 0)"/>
      <use xlink:href="#DejaVuSans-6e" transform="translate(219.685547 0)"/>
      <use xlink:href="#DejaVuSans-64" transform="translate(283.064453 0)"/>
      <use xlink:href="#DejaVuSans-73" transform="translate(346.541016 0)"/>
     </g>
    </g>
   </g>
   <g id="text_21">
    <g id="patch_48">
     <path d="M 322.312995 487.837076 
L 346.23237 487.837076 
Q 348.03237 487.837076 348.03237 486.037076 
L 348.03237 480.230201 
Q 348.03237 478.430201 346.23237 478.430201 
L 322.312995 478.430201 
Q 320.512995 478.430201 320.512995 480.230201 
L 320.512995 486.037076 
Q 320.512995 487.837076 322.312995 487.837076 
z
" clip-path="url(#pf1a8a77695)" style="fill: #ffffff; stroke: #ffffff; stroke-linejoin: miter"/>
    </g>
    <g clip-path="url(#pf1a8a77695)">
     <!-- extends -->
     <g transform="translate(322.312995 484.789264) scale(0.06 -0.06)">
      <use xlink:href="#DejaVuSans-65"/>
      <use xlink:href="#DejaVuSans-78" transform="translate(59.773438 0)"/>
      <use xlink:href="#DejaVuSans-74" transform="translate(118.953125 0)"/>
      <use xlink:href="#DejaVuSans-65" transform="translate(158.162109 0)"/>
      <use xlink:href="#DejaVuSans-6e" transform="translate(219.685547 0)"/>
      <use xlink:href="#DejaVuSans-64" transform="translate(283.064453 0)"/>
      <use xlink:href="#DejaVuSans-73" transform="translate(346.541016 0)"/>
     </g>
    </g>
   </g>
   <g id="text_22">
    <g id="patch_49">
     <path d="M 306.485386 405.734117 
L 319.920698 405.734117 
Q 321.720698 405.734117 321.720698 403.934117 
L 321.720698 398.127242 
Q 321.720698 396.327242 319.920698 396.327242 
L 306.485386 396.327242 
Q 304.685386 396.327242 304.685386 398.127242 
L 304.685386 403.934117 
Q 304.685386 405.734117 306.485386 405.734117 
z
" clip-path="url(#pf1a8a77695)" style="fill: #ffffff; stroke: #ffffff; stroke-linejoin: miter"/>
    </g>
    <g clip-path="url(#pf1a8a77695)">
     <!-- calls -->
     <g transform="translate(306.485386 402.686305) scale(0.06 -0.06)">
      <use xlink:href="#DejaVuSans-63"/>
      <use xlink:href="#DejaVuSans-61" transform="translate(54.980469 0)"/>
      <use xlink:href="#DejaVuSans-6c" transform="translate(116.259766 0)"/>
      <use xlink:href="#DejaVuSans-6c" transform="translate(144.042969 0)"/>
      <use xlink:href="#DejaVuSans-73" transform="translate(171.826172 0)"/>
     </g>
    </g>
   </g>
   <g id="text_23">
    <g id="patch_50">
     <path d="M 112.061254 487.839781 
L 134.997192 487.839781 
Q 136.797192 487.839781 136.797192 486.039781 
L 136.797192 480.232906 
Q 136.797192 478.432906 134.997192 478.432906 
L 112.061254 478.432906 
Q 110.261254 478.432906 110.261254 480.232906 
L 110.261254 486.039781 
Q 110.261254 487.839781 112.061254 487.839781 
z
" clip-path="url(#pf1a8a77695)" style="fill: #ffffff; stroke: #ffffff; stroke-linejoin: miter"/>
    </g>
    <g clip-path="url(#pf1a8a77695)">
     <!-- imports -->
     <g transform="translate(112.061254 484.791969) scale(0.06 -0.06)">
      <use xlink:href="#DejaVuSans-69"/>
      <use xlink:href="#DejaVuSans-6d" transform="translate(27.783203 0)"/>
      <use xlink:href="#DejaVuSans-70" transform="translate(125.195312 0)"/>
      <use xlink:href="#DejaVuSans-6f" transform="translate(188.671875 0)"/>
      <use xlink:href="#DejaVuSans-72" transform="translate(249.853516 0)"/>
      <use xlink:href="#DejaVuSans-74" transform="translate(290.966797 0)"/>
      <use xlink:href="#DejaVuSans-73" transform="translate(330.175781 0)"/>
     </g>
    </g>
   </g>
   <g id="text_24">
    <g id="patch_51">
     <path d="M 322.807767 487.839781 
L 345.743704 487.839781 
Q 347.543704 487.839781 347.543704 486.039781 
L 347.543704 480.232906 
Q 347.543704 478.432906 345.743704 478.432906 
L 322.807767 478.432906 
Q 321.007767 478.432906 321.007767 480.232906 
L 321.007767 486.039781 
Q 321.007767 487.839781 322.807767 487.839781 
z
" clip-path="url(#pf1a8a77695)" style="fill: #ffffff; stroke: #ffffff; stroke-linejoin: miter"/>
    </g>
    <g clip-path="url(#pf1a8a77695)">
     <!-- imports -->
     <g transform="translate(322.807767 484.791969) scale(0.06 -0.06)">
      <use xlink:href="#DejaVuSans-69"/>
      <use xlink:href="#DejaVuSans-6d" transform="translate(27.783203 0)"/>
      <use xlink:href="#DejaVuSans-70" transform="translate(125.195312 0)"/>
      <use xlink:href="#DejaVuSans-6f" transform="translate(188.671875 0)"/>
      <use xlink:href="#DejaVuSans-72" transform="translate(249.853516 0)"/>
      <use xlink:href="#DejaVuSans-74" transform="translate(290.966797 0)"/>
      <use xlink:href="#DejaVuSans-73" transform="translate(330.175781 0)"/>
     </g>
    </g>
   </g>
   <g id="text_25">
    <g id="patch_52">
     <path d="M 301.239935 323.629478 
L 325.15931 323.629478 
Q 326.95931 323.629478 326.95931 321.829478 
L 326.95931 316.022603 
Q 326.95931 314.222603 325.15931 314.222603 
L 301.239935 314.222603 
Q 299.439935 314.222603 299.439935 316.022603 
L 299.439935 321.829478 
Q 299.439935 323.629478 301.239935 323.629478 
z
" clip-path="url(#pf1a8a77695)" style="fill: #ffffff; stroke: #ffffff; stroke-linejoin: miter"/>
    </g>
    <g clip-path="url(#pf1a8a77695)">
     <!-- extends -->
     <g transform="translate(301.239935 320.581666) scale(0.06 -0.06)">
      <use xlink:href="#DejaVuSans-65"/>
      <use xlink:href="#DejaVuSans-78" transform="translate(59.773438 0)"/>
      <use xlink:href="#DejaVuSans-74" transform="translate(118.953125 0)"/>
      <use xlink:href="#DejaVuSans-65" transform="translate(158.162109 0)"/>
      <use xlink:href="#DejaVuSans-6e" transform="translate(219.685547 0)"/>
      <use xlink:href="#DejaVuSans-64" transform="translate(283.064453 0)"/>
      <use xlink:href="#DejaVuSans-73" transform="translate(346.541016 0)"/>
     </g>
    </g>
   </g>
   <g id="text_26">
    <g id="patch_53">
     <path d="M 137.888092 569.941925 
L 151.323405 569.941925 
Q 153.123405 569.941925 153.123405 568.141925 
L 153.123405 562.33505 
Q 153.123405 560.53505 151.323405 560.53505 
L 137.888092 560.53505 
Q 136.088092 560.53505 136.088092 562.33505 
L 136.088092 568.141925 
Q 136.088092 569.941925 137.888092 569.941925 
z
" clip-path="url(#pf1a8a77695)" style="fill: #ffffff; stroke: #ffffff; stroke-linejoin: miter"/>
    </g>
    <g clip-path="url(#pf1a8a77695)">
     <!-- calls -->
     <g transform="translate(137.888092 566.894113) scale(0.06 -0.06)">
      <use xlink:href="#DejaVuSans-63"/>
      <use xlink:href="#DejaVuSans-61" transform="translate(54.980469 0)"/>
      <use xlink:href="#DejaVuSans-6c" transform="translate(116.259766 0)"/>
      <use xlink:href="#DejaVuSans-6c" transform="translate(144.042969 0)"/>
      <use xlink:href="#DejaVuSans-73" transform="translate(171.826172 0)"/>
     </g>
    </g>
   </g>
   <g id="PathCollection_1">
    <defs>
     <path id="mb60bfa6c0f" d="M 0 14.456832 
C 3.833997 14.456832 7.511479 12.933569 10.222524 10.222524 
C 12.933569 7.511479 14.456832 3.833997 14.456832 0 
C 14.456832 -3.833997 12.933569 -7.511479 10.222524 -10.222524 
C 7.511479 -12.933569 3.833997 -14.456832 0 -14.456832 
C -3.833997 -14.456832 -7.511479 -12.933569 -10.222524 -10.222524 
C -12.933569 -7.511479 -14.456832 -3.833997 -14.456832 0 
C -14.456832 3.833997 -12.933569 7.511479 -10.222524 10.222524 
C -7.511479 12.933569 -3.833997 14.456832 0 14.456832 
z
" style="stroke: #274472"/>
    </defs>
    <g clip-path="url(#pf1a8a77695)">
     <use xlink:href="#mb60bfa6c0f" x="313.2" y="72.615063" style="fill: #cfe3ff; stroke: #274472"/>
     <use xlink:href="#mb60bfa6c0f" x="186.753719" y="236.822871" style="fill: #cfe3ff; stroke: #274472"/>
     <use xlink:href="#mb60bfa6c0f" x="355.34876" y="236.822871" style="fill: #cfe3ff; stroke: #274472"/>
     <use xlink:href="#mb60bfa6c0f" x="439.646281" y="236.822871" style="fill: #cfe3ff; stroke: #274472"/>
     <use xlink:href="#mb60bfa6c0f" x="355.34876" y="401.03068" style="fill: #cfe3ff; stroke: #274472"/>
     <use xlink:href="#mb60bfa6c0f" x="313.2" y="565.238488" style="fill: #cfe3ff; stroke: #274472"/>
     <use xlink:href="#mb60bfa6c0f" x="397.497521" y="565.238488" style="fill: #cfe3ff; stroke: #274472"/>
     <use xlink:href="#mb60bfa6c0f" x="481.795041" y="565.238488" style="fill: #cfe3ff; stroke: #274472"/>
     <use xlink:href="#mb60bfa6c0f" x="439.646281" y="401.03068" style="fill: #cfe3ff; stroke: #274472"/>
     <use xlink:href="#mb60bfa6c0f" x="566.092562" y="565.238488" style="fill: #cfe3ff; stroke: #274472"/>
     <use xlink:href="#mb60bfa6c0f" x="60.307438" y="565.238488" style="fill: #cfe3ff; stroke: #274472"/>
     <use xlink:href="#mb60bfa6c0f" x="186.753719" y="401.03068" style="fill: #cfe3ff; stroke: #274472"/>
     <use xlink:href="#mb60bfa6c0f" x="271.05124" y="401.03068" style="fill: #cfe3ff; stroke: #274472"/>
     <use xlink:href="#mb60bfa6c0f" x="144.604959" y="565.238488" style="fill: #cfe3ff; stroke: #274472"/>
     <use xlink:href="#mb60bfa6c0f" x="271.05124" y="236.822871" style="fill: #cfe3ff; stroke: #274472"/>
     <use xlink:href="#mb60bfa6c0f" x="228.902479" y="565.238488" style="fill: #cfe3ff; stroke: #274472"/>
    </g>
   </g>
   <g id="text_27">
    <g clip-path="url(#pf1a8a77695)">
     <!-- N0 -->
     <g transform="translate(306.278125 75.374438) scale(0.1 -0.1)">
      <defs>
       <path id="DejaVuSans-4e" d="M 628 4666 
L 1478 4666 
L 3547 763 
L 3547 4666 
L 4159 4666 
L 4159 0 
L 3309 0 
L 1241 3903 
L 1241 0 
L 628 0 
L 628 4666 
z
" transform="scale(0.015625)"/>
       <path id="DejaVuSans-30" d="M 2034 4250 
Q 1547 4250 1301 3770 
Q 1056 3291 1056 2328 
Q 1056 1369 1301 889 
Q 1547 409 2034 409 
Q 2525 409 2770 889 
Q 3016 1369 3016 2328 
Q 3016 3291 2770 3770 
Q 2525 4250 2034 4250 
z
M 2034 4750 
Q 2819 4750 3233 4129 
Q 3647 3509 3647 2328 
Q 3647 1150 3233 529 
Q 2819 -91 2034 -91 
Q 1250 -91 836 529 
Q 422 1150 422 2328 
Q 422 3509 836 4129 
Q 1250 4750 2034 4750 
z
" transform="scale(0.015625)"/>
      </defs>
      <use xlink:href="#DejaVuSans-4e"/>
      <use xlink:href="#DejaVuSans-30" transform="translate(74.804688 0)"/>
     </g>
    </g>
   </g>
   <g id="text_28">
    <g clip-path="url(#pf1a8a77695)">
     <!-- N1 -->
     <g transform="translate(179.831844 239.582246) scale(0.1 -0.1)">
      <defs>
       <path id="DejaVuSans-31" d="M 794 531 
L 1825 531 
L 1825 4091 
L 703 3866 
L 703 4441 
L 1819 4666 
L 2450 4666 
L 2450 531 
L 3481 531 
L 3481 0 
L 794 0 
L 794 531 
z
" transform="scale(0.015625)"/>
      </defs>
      <use xlink:href="#DejaVuSans-4e"/>
      <use xlink:href="#DejaVuSans-31" transform="translate(74.804688 0)"/>
     </g>
    </g>
   </g>
   <g id="text_29">
    <g clip-path="url(#pf1a8a77695)">
     <!-- N2 -->
     <g transform="translate(348.426885 239.582246) scale(0.1 -0.1)">
      <defs>
       <path id="DejaVuSans-32" d="M 1228 531 
L 3431 531 
L 3431 0 
L 469 0 
L 469 531 
Q 828 903 1448 1529 
Q 2069 2156 2228 2338 
Q 2531 2678 2651 2914 
Q 2772 3150 2772 3378 
Q 2772 3750 2511 3984 
Q 2250 4219 1831 4219 
Q 1534 4219 1204 4116 
Q 875 4013 500 3803 
L 500 4441 
Q 881 4594 1212 4672 
Q 1544 4750 1819 4750 
Q 2544 4750 2975 4387 
Q 3406 4025 3406 3419 
Q 3406 3131 3298 2873 
Q 3191 2616 2906 2266 
Q 2828 2175 2409 1742 
Q 1991 1309 1228 531 
z
" transform="scale(0.015625)"/>
      </defs>
      <use xlink:href="#DejaVuSans-4e"/>
      <use xlink:href="#DejaVuSans-32" transform="translate(74.804688 0)"/>
     </g>
    </g>
   </g>
   <g id="text_30">
    <g clip-path="url(#pf1a8a77695)">
     <!-- N3 -->
     <g transform="translate(432.724406 239.582246) scale(0.1 -0.1)">
      <defs>
       <path id="DejaVuSans-33" d="M 2597 2516 
Q 3050 2419 3304 2112 
Q 3559 1806 3559 1356 
Q 3559 666 3084 287 
Q 2609 -91 1734 -91 
Q 1441 -91 1130 -33 
Q 819 25 488 141 
L 488 750 
Q 750 597 1062 519 
Q 1375 441 1716 441 
Q 2309 441 2620 675 
Q 2931 909 2931 1356 
Q 2931 1769 2642 2001 
Q 2353 2234 1838 2234 
L 1294 2234 
L 1294 2753 
L 1863 2753 
Q 2328 2753 2575 2939 
Q 2822 3125 2822 3475 
Q 2822 3834 2567 4026 
Q 2313 4219 1838 4219 
Q 1578 4219 1281 4162 
Q 984 4106 628 3988 
L 628 4550 
Q 988 4650 1302 4700 
Q 1616 4750 1894 4750 
Q 2613 4750 3031 4423 
Q 3450 4097 3450 3541 
Q 3450 3153 3228 2886 
Q 3006 2619 2597 2516 
z
" transform="scale(0.015625)"/>
      </defs>
      <use xlink:href="#DejaVuSans-4e"/>
      <use xlink:href="#DejaVuSans-33" transform="translate(74.804688 0)"/>
     </g>
    </g>
   </g>
   <g id="text_31">
    <g clip-path="url(#pf1a8a77695)">
     <!-- N4 -->
     <g transform="translate(348.426885 403.790055) scale(0.1 -0.1)">
      <defs>
       <path id="DejaVuSans-34" d="M 2419 4116 
L 825 1625 
L 2419 1625 
L 2419 4116 
z
M 2253 4666 
L 3047 4666 
L 3047 1625 
L 3713 1625 
L 3713 1100 
L 3047 1100 
L 3047 0 
L 2419 0 
L 2419 1100 
L 313 1100 
L 313 1709 
L 2253 4666 
z
" transform="scale(0.015625)"/>
      </defs>
      <use xlink:href="#DejaVuSans-4e"/>
      <use xlink:href="#DejaVuSans-34" transform="translate(74.804688 0)"/>
     </g>
    </g>
   </g>
   <g id="text_32">
    <g clip-path="url(#pf1a8a77695)">
     <!-- N5 -->
     <g transform="translate(306.278125 567.997863) scale(0.1 -0.1)">
      <defs>
       <path id="DejaVuSans-35" d="M 691 4666 
L 3169 4666 
L 3169 4134 
L 1269 4134 
L 1269 2991 
Q 1406 3038 1543 3061 
Q 1681 3084 1819 3084 
Q 2600 3084 3056 2656 
Q 3513 2228 3513 1497 
Q 3513 744 3044 326 
Q 2575 -91 1722 -91 
Q 1428 -91 1123 -41 
Q 819 9 494 109 
L 494 744 
Q 775 591 1075 516 
Q 1375 441 1709 441 
Q 2250 441 2565 725 
Q 2881 1009 2881 1497 
Q 2881 1984 2565 2268 
Q 2250 2553 1709 2553 
Q 1456 2553 1204 2497 
Q 953 2441 691 2322 
L 691 4666 
z
" transform="scale(0.015625)"/>
      </defs>
      <use xlink:href="#DejaVuSans-4e"/>
      <use xlink:href="#DejaVuSans-35" transform="translate(74.804688 0)"/>
     </g>
    </g>
   </g>
   <g id="text_33">
    <g clip-path="url(#pf1a8a77695)">
     <!-- N6 -->
     <g transform="translate(390.575646 567.997863) scale(0.1 -0.1)">
      <defs>
       <path id="DejaVuSans-36" d="M 2113 2584 
Q 1688 2584 1439 2293 
Q 1191 2003 1191 1497 
Q 1191 994 1439 701 
Q 1688 409 2113 409 
Q 2538 409 2786 701 
Q 3034 994 3034 1497 
Q 3034 2003 2786 2293 
Q 2538 2584 2113 2584 
z
M 3366 4563 
L 3366 3988 
Q 3128 4100 2886 4159 
Q 2644 4219 2406 4219 
Q 1781 4219 1451 3797 
Q 1122 3375 1075 2522 
Q 1259 2794 1537 2939 
Q 1816 3084 2150 3084 
Q 2853 3084 3261 2657 
Q 3669 2231 3669 1497 
Q 3669 778 3244 343 
Q 2819 -91 2113 -91 
Q 1303 -91 875 529 
Q 447 1150 447 2328 
Q 447 3434 972 4092 
Q 1497 4750 2381 4750 
Q 2619 4750 2861 4703 
Q 3103 4656 3366 4563 
z
" transform="scale(0.015625)"/>
      </defs>
      <use xlink:href="#DejaVuSans-4e"/>
      <use xlink:href="#DejaVuSans-36" transform="translate(74.804688 0)"/>
     </g>
    </g>
   </g>
   <g id="text_34">
    <g clip-path="url(#pf1a8a77695)">
     <!-- N7 -->
     <g transform="translate(474.873166 567.997863) scale(0.1 -0.1)">
      <defs>
       <path id="DejaVuSans-37" d="M 525 4666 
L 3525 4666 
L 3525 4397 
L 1831 0 
L 1172 0 
L 2766 4134 
L 525 4134 
L 525 4666 
z
" transform="scale(0.015625)"/>
      </defs>
      <use xlink:href="#DejaVuSans-4e"/>
      <use xlink:href="#DejaVuSans-37" transform="translate(74.804688 0)"/>
     </g>
    </g>
   </g>
   <g id="text_35">
    <g clip-path="url(#pf1a8a77695)">
     <!-- N8 -->
     <g transform="translate(432.724406 403.790055) scale(0.1 -0.1)">
      <defs>
       <path id="DejaVuSans-38" d="M 2034 2216 
Q 1584 2216 1326 1975 
Q 1069 1734 1069 1313 
Q 1069 891 1326 650 
Q 1584 409 2034 409 
Q 2484 409 2743 651 
Q 3003 894 3003 1313 
Q 3003 1734 2745 1975 
Q 2488 2216 2034 2216 
z
M 1403 2484 
Q 997 2584 770 2862 
Q 544 3141 544 3541 
Q 544 4100 942 4425 
Q 1341 4750 2034 4750 
Q 2731 4750 3128 4425 
Q 3525 4100 3525 3541 
Q 3525 3141 3298 2862 
Q 3072 2584 2669 2484 
Q 3125 2378 3379 2068 
Q 3634 1759 3634 1313 
Q 3634 634 3220 271 
Q 2806 -91 2034 -91 
Q 1263 -91 848 271 
Q 434 634 434 1313 
Q 434 1759 690 2068 
Q 947 2378 1403 2484 
z
M 1172 3481 
Q 1172 3119 1398 2916 
Q 1625 2713 2034 2713 
Q 2441 2713 2670 2916 
Q 2900 3119 2900 3481 
Q 2900 3844 2670 4047 
Q 2441 4250 2034 4250 
Q 1625 4250 1398 4047 
Q 1172 3844 1172 3481 
z
" transform="scale(0.015625)"/>
      </defs>
      <use xlink:href="#DejaVuSans-4e"/>
      <use xlink:href="#DejaVuSans-38" transform="translate(74.804688 0)"/>
     </g>
    </g>
   </g>
   <g id="text_36">
    <g clip-path="url(#pf1a8a77695)">
     <!-- N9 -->
     <g transform="translate(559.170687 567.997863) scale(0.1 -0.1)">
      <defs>
       <path id="DejaVuSans-39" d="M 703 97 
L 703 672 
Q 941 559 1184 500 
Q 1428 441 1663 441 
Q 2288 441 2617 861 
Q 2947 1281 2994 2138 
Q 2813 1869 2534 1725 
Q 2256 1581 1919 1581 
Q 1219 1581 811 2004 
Q 403 2428 403 3163 
Q 403 3881 828 4315 
Q 1253 4750 1959 4750 
Q 2769 4750 3195 4129 
Q 3622 3509 3622 2328 
Q 3622 1225 3098 567 
Q 2575 -91 1691 -91 
Q 1453 -91 1209 -44 
Q 966 3 703 97 
z
M 1959 2075 
Q 2384 2075 2632 2365 
Q 2881 2656 2881 3163 
Q 2881 3666 2632 3958 
Q 2384 4250 1959 4250 
Q 1534 4250 1286 3958 
Q 1038 3666 1038 3163 
Q 1038 2656 1286 2365 
Q 1534 2075 1959 2075 
z
" transform="scale(0.015625)"/>
      </defs>
      <use xlink:href="#DejaVuSans-4e"/>
      <use xlink:href="#DejaVuSans-39" transform="translate(74.804688 0)"/>
     </g>
    </g>
   </g>
   <g id="text_37">
    <g clip-path="url(#pf1a8a77695)">
     <!-- N10 -->
     <g transform="translate(50.204313 567.997863) scale(0.1 -0.1)">
      <use xlink:href="#DejaVuSans-4e"/>
      <use xlink:href="#DejaVuSans-31" transform="translate(74.804688 0)"/>
      <use xlink:href="#DejaVuSans-30" transform="translate(138.427734 0)"/>
     </g>
    </g>
   </g>
   <g id="text_38">
    <g clip-path="url(#pf1a8a77695)">
     <!-- N11 -->
     <g transform="translate(176.650594 403.790055) scale(0.1 -0.1)">
      <use xlink:href="#DejaVuSans-4e"/>
      <use xlink:href="#DejaVuSans-31" transform="translate(74.804688 0)"/>
      <use xlink:href="#DejaVuSans-31" transform="translate(138.427734 0)"/>
     </g>
    </g>
   </g>
   <g id="text_39">
    <g clip-path="url(#pf1a8a77695)">
     <!-- N12 -->
     <g transform="translate(260.948115 403.790055) scale(0.1 -0.1)">
      <use xlink:href="#DejaVuSans-4e"/>
      <use xlink:href="#DejaVuSans-31" transform="translate(74.804688 0)"/>
      <use xlink:href="#DejaVuSans-32" transform="translate(138.427734 0)"/>
     </g>
    </g>
   </g>
   <g id="text_40">
    <g clip-path="url(#pf1a8a77695)">
     <!-- N13 -->
     <g transform="translate(134.501834 567.997863) scale(0.1 -0.1)">
      <use xlink:href="#DejaVuSans-4e"/>
      <use xlink:href="#DejaVuSans-31" transform="translate(74.804688 0)"/>
      <use xlink:href="#DejaVuSans-33" transform="translate(138.427734 0)"/>
     </g>
    </g>
   </g>
   <g id="text_41">
    <g clip-path="url(#pf1a8a77695)">
     <!-- N14 -->
     <g transform="translate(260.948115 239.582246) scale(0.1 -0.1)">
      <use xlink:href="#DejaVuSans-4e"/>
      <use xlink:href="#DejaVuSans-31" transform="translate(74.804688 0)"/>
      <use xlink:href="#DejaVuSans-34" transform="translate(138.427734 0)"/>
     </g>
    </g>
   </g>
   <g id="text_42">
    <g clip-path="url(#pf1a8a77695)">
     <!-- N15 -->
     <g transform="translate(218.799354 567.997863) scale(0.1 -0.1)">
      <use xlink:href="#DejaVuSans-4e"/>
      <use xlink:href="#DejaVuSans-31" transform="translate(74.804688 0)"/>
      <use xlink:href="#DejaVuSans-35" transform="translate(138.427734 0)"/>
     </g>
    </g>
   </g>
   <g id="text_43">
    <!-- hierarchical-small-n16-s2 -->
    <g transform="translate(249.947656 14.798437) scale(0.1 -0.1)">
     <defs>
      <path id="DejaVuSans-68" d="M 3513 2113 
L 3513 0 
L 2938 0 
L 2938 2094 
Q 2938 2591 2744 2837 
Q 2550 3084 2163 3084 
Q 1697 3084 1428 2787 
Q 1159 2491 1159 1978 
L 1159 0 
L 581 0 
L 581 4863 
L 1159 4863 
L 1159 2956 
Q 1366 3272 1645 3428 
Q 1925 3584 2291 3584 
Q 2894 3584 3203 3211 
Q 3513 2838 3513 2113 
z
" transform="scale(0.015625)"/>
      <path id="DejaVuSans-2d" d="M 313 2009 
L 1997 2009 
L 1997 1497 
L 313 1497 
L 313 2009 
z
" transform="scale(0.015625)"/>
     </defs>
     <use xlink:href="#DejaVuSans-68"/>
     <use xlink:href="#DejaVuSans-69" transform="translate(63.378906 0)"/>
     <use xlink:href="#DejaVuSans-65" transform="translate(91.162109 0)"/>
     <use xlink:href="#DejaVuSans-72" transform="translate(152.685547 0)"/>
     <use xlink:href="#DejaVuSans-61" transform="translate(193.798828 0)"/>
     <use xlink:href="#DejaVuSans-72" transform="translate(255.078125 0)"/>
     <use xlink:href="#DejaVuSans-63" transform="translate(293.941406 0)"/>
     <use xlink:href="#DejaVuSans-68" transform="translate(348.921875 0)"/>
     <use xlink:href="#DejaVuSans-69" transform="translate(412.300781 0)"/>
     <use xlink:href="#DejaVuSans-63" transform="translate(440.083984 0)"/>
     <use xlink:href="#DejaVuSans-61" transform="translate(495.064453 0)"/>
     <use xlink:href="#DejaVuSans-6c" transform="translate(556.34375 0)"/>
     <use xlink:href="#DejaVuSans-2d" transform="translate(584.126953 0)"/>
     <use xlink:href="#DejaVuSans-73" transform="translate(620.210938 0)"/>
     <use xlink:href="#DejaVuSans-6d" transform="translate(672.310547 0)"/>
     <use xlink:href="#DejaVuSans-61" transform="translate(769.722656 0)"/>
     <use xlink:href="#DejaVuSans-6c" transform="translate(831.001953 0)"/>
     <use xlink:href="#DejaVuSans-6c" transform="translate(858.785156 0)"/>
     <use xlink:href="#DejaVuSans-2d" transform="translate(886.568359 0)"/>
     <use xlink:href="#DejaVuSans-6e" transform="translate(922.652344 0)"/>
     <use xlink:href="#DejaVuSans-31" transform="translate(986.03125 0)"/>
     <use xlink:href="#DejaVuSans-36" transform="translate(1049.654297 0)"/>
     <use xlink:href="#DejaVuSans-2d" transform="translate(1113.277344 0)"/>
     <use xlink:href="#DejaVuSans-73" transform="translate(1149.361328 0)"/>
     <use xlink:href="#DejaVuSans-32" transform="translate(1201.460938 0)"/>
    </g>
   </g>
  </g>
 </g>
 <defs>
  <clipPath id="pf1a8a77695">
   <rect x="7.2" y="20.798437" width="612" height="598.08"/>
  </clipPath>
 </defs>
</svg>
