<?xml version="1.0" encoding="utf-8" standalone="no"?>
<!DOCTYPE svg PUBLIC "-//W3C//DTD SVG 1.1//EN"
  "http://www.w3.org/Graphics/SVG/1.1/DTD/svg11.dtd">
<svg xmlns:xlink="http://www.w3.org/1999/xlink" width="453.6pt" height="453.278437pt" viewBox="0 0 453.6 453.278437" xmlns="http://www.w3.org/2000/svg" version="1.1">
 <metadata>
  <rdf:RDF xmlns:dc="http://purl.org/dc/elements/1.1/" xmlns:cc="http://creativecommons.org/ns#" xmlns:rdf="http://www.w3.org/1999/02/22-rdf-syntax-ns#">
   <cc:Work>
    <dc:type rdf:resource="http://purl.org/dc/dcmitype/StillImage"/>
    <dc:date>2026-05-29T06:38:44.441461</dc:date>
    <dc:format>image/svg+xml</dc:format>
    <dc:creator>
     <cc:Agent>
      <dc:title>Matplotlib v3.10.9, https://matplotlib.org/</dc:title>
     </cc:Agent>
    </dc:creator>
   </cc:Work>
  </rdf:RDF>
 </metadata>
 <defs>
  <style type="text/css">*{stroke-linejoin: round; stroke-linecap: butt}</style>
 </defs>
 <g id="figure_1">
  <g id="patch_1">
   <path d="M 0 453.278437 
L 453.6 453.278437 
L 453.6 0 
L 0 0 
z
" style="fill: #ffffff"/>
  </g>
  <g id="axes_1">
   <g id="patch_2">
    <path d="M 52.461926 277.494691 
Q 90.837303 250.577687 119.983199 215.30526 
" clip-path="url(#p99dc0a26f3)" style="fill: none; stroke: #888888; stroke-linecap: round"/>
    <path d="M 115.893512 217.114806 
L 119.983199 215.30526 
L 118.977024 219.662738 
z
" clip-path="url(#p99dc0a26f3)" style="fill: #888888; stroke: #888888; stroke-linecap: round"/>
   </g>
   <g id="patch_3">
    <path d="M 51.761642 276.596364 
Q 124.065789 210.915674 173.836546 128.165721 
" clip-path="url(#p99dc0a26f3)" style="fill: none; stroke: #888888; stroke-linecap: round"/>
    <path d="M 170.061004 130.562653 
L 173.836546 128.165721 
L 173.488767 132.624314 
z
" clip-path="url(#p99dc0a26f3)" style="fill: #888888; stroke: #888888; stroke-linecap: round"/>
   </g>
   <g id="patch_4">
    <path d="M 53.956101 282.926829 
Q 229.351897 293.370933 398.803933 251.333694 
" clip-path="url(#p99dc0a26f3)" style="fill: none; stroke: #888888; stroke-linecap: round"/>
    <path d="M 394.440055 250.35565 
L 398.803933 251.333694 
L 395.403172 254.23797 
z
" clip-path="url(#p99dc0a26f3)" style="fill: #888888; stroke: #888888; stroke-linecap: round"/>
   </g>
   <g id="patch_5">
    <path d="M 48.239949 290.533159 
Q 70.454926 350.632306 107.75624 401.34734 
" clip-path="url(#p99dc0a26f3)" style="fill: none; stroke: #888888; stroke-linecap: round"/>
    <path d="M 106.997368 396.94006 
L 107.75624 401.34734 
L 103.775093 399.310069 
z
" clip-path="url(#p99dc0a26f3)" style="fill: #888888; stroke: #888888; stroke-linecap: round"/>
   </g>
   <g id="patch_6">
    <path d="M 339.145564 61.743354 
Q 178.885495 146.994572 52.160846 275.397298 
" clip-path="url(#p99dc0a26f3)" style="fill: none; stroke: #888888; stroke-linecap: round"/>
    <path d="M 56.394093 273.95521 
L 52.160846 275.397298 
L 53.547124 271.145448 
z
" clip-path="url(#p99dc0a26f3)" style="fill: #888888; stroke: #888888; stroke-linecap: round"/>
   </g>
   <g id="patch_7">
    <path d="M 338.324339 59.446103 
Q 258.306052 76.515837 187.391106 115.0342 
" clip-path="url(#p99dc0a26f3)" style="fill: none; stroke: #888888; stroke-linecap: round"/>
    <path d="M 191.860668 114.882484 
L 187.391106 115.0342 
L 189.95147 111.367521 
z
" clip-path="url(#p99dc0a26f3)" style="fill: #888888; stroke: #888888; stroke-linecap: round"/>
   </g>
   <g id="patch_8">
    <path d="M 243.34873 312.392568 
Q 150.862027 283.498899 55.090964 282.433532 
" clip-path="url(#p99dc0a26f3)" style="fill: none; stroke: #888888; stroke-linecap: round"/>
    <path d="M 59.06847 284.477901 
L 55.090964 282.433532 
L 59.112963 280.478149 
z
" clip-path="url(#p99dc0a26f3)" style="fill: #888888; stroke: #888888; stroke-linecap: round"/>
   </g>
   <g id="patch_9">
    <path d="M 249.841977 306.546133 
Q 229.605033 212.028745 183.586549 128.300018 
" clip-path="url(#p99dc0a26f3)" style="fill: none; stroke: #888888; stroke-linecap: round"/>
    <path d="M 183.760468 132.768771 
L 183.586549 128.300018 
L 187.265903 130.842135 
z
" clip-path="url(#p99dc0a26f3)" style="fill: #888888; stroke: #888888; stroke-linecap: round"/>
   </g>
   <g id="patch_10">
    <path d="M 256.164132 307.664336 
Q 283.438247 262.53702 297.226193 212.801764 
" clip-path="url(#p99dc0a26f3)" style="fill: none; stroke: #888888; stroke-linecap: round"/>
    <path d="M 294.23028 216.122081 
L 297.226193 212.801764 
L 298.084898 217.190685 
z
" clip-path="url(#p99dc0a26f3)" style="fill: #888888; stroke: #888888; stroke-linecap: round"/>
   </g>
   <g id="patch_11">
    <path d="M 118.981021 212.585245 
Q 80.605644 239.502249 51.459747 274.774676 
" clip-path="url(#p99dc0a26f3)" style="fill: none; stroke: #888888; stroke-linecap: round"/>
    <path d="M 55.549435 272.96513 
L 51.459747 274.774676 
L 52.465923 270.417199 
z
" clip-path="url(#p99dc0a26f3)" style="fill: #888888; stroke: #888888; stroke-linecap: round"/>
   </g>
   <g id="patch_12">
    <path d="M 133.957288 203.98301 
Q 247.726005 149.257213 339.654365 64.366685 
" clip-path="url(#p99dc0a26f3)" style="fill: none; stroke: #888888; stroke-linecap: round"/>
    <path d="M 335.358837 65.611046 
L 339.654365 64.366685 
L 338.072537 68.549724 
z
" clip-path="url(#p99dc0a26f3)" style="fill: #888888; stroke: #888888; stroke-linecap: round"/>
   </g>
   <g id="patch_13">
    <path d="M 131.793579 214.253427 
Q 181.123166 270.413786 243.302964 309.849375 
" clip-path="url(#p99dc0a26f3)" style="fill: none; stroke: #888888; stroke-linecap: round"/>
    <path d="M 240.996211 306.018071 
L 243.302964 309.849375 
L 238.853869 309.395995 
z
" clip-path="url(#p99dc0a26f3)" style="fill: #888888; stroke: #888888; stroke-linecap: round"/>
   </g>
   <g id="patch_14">
    <path d="M 134.722584 208.787389 
Q 213.252809 218.114058 290.115868 205.057769 
" clip-path="url(#p99dc0a26f3)" style="fill: none; stroke: #888888; stroke-linecap: round"/>
    <path d="M 285.837425 203.755875 
L 290.115868 205.057769 
L 286.507287 207.699387 
z
" clip-path="url(#p99dc0a26f3)" style="fill: #888888; stroke: #888888; stroke-linecap: round"/>
   </g>
   <g id="patch_15">
    <path d="M 124.290776 216.161662 
Q 105.063027 307.515346 112.741399 399.432347 
" clip-path="url(#p99dc0a26f3)" style="fill: none; stroke: #888888; stroke-linecap: round"/>
    <path d="M 114.401474 395.279739 
L 112.741399 399.432347 
L 110.415358 395.612723 
z
" clip-path="url(#p99dc0a26f3)" style="fill: #888888; stroke: #888888; stroke-linecap: round"/>
   </g>
   <g id="patch_16">
    <path d="M 187.310954 118.015576 
Q 267.329242 100.945842 338.244188 62.427479 
" clip-path="url(#p99dc0a26f3)" style="fill: none; stroke: #888888; stroke-linecap: round"/>
    <path d="M 333.774626 62.579195 
L 338.244188 62.427479 
L 335.683823 66.094158 
z
" clip-path="url(#p99dc0a26f3)" style="fill: #888888; stroke: #888888; stroke-linecap: round"/>
   </g>
   <g id="patch_17">
    <path d="M 173.345941 126.463674 
Q 146.522307 160.159039 129.900829 198.676008 
" clip-path="url(#p99dc0a26f3)" style="fill: none; stroke: #888888; stroke-linecap: round"/>
    <path d="M 133.322014 195.795818 
L 129.900829 198.676008 
L 129.649388 194.210946 
z
" clip-path="url(#p99dc0a26f3)" style="fill: #888888; stroke: #888888; stroke-linecap: round"/>
   </g>
   <g id="patch_18">
    <path d="M 185.13926 125.690324 
Q 233.333722 170.168534 290.968627 199.044821 
" clip-path="url(#p99dc0a26f3)" style="fill: none; stroke: #888888; stroke-linecap: round"/>
    <path d="M 288.288267 195.464923 
L 290.968627 199.044821 
L 286.496493 199.04117 
z
" clip-path="url(#p99dc0a26f3)" style="fill: #888888; stroke: #888888; stroke-linecap: round"/>
   </g>
   <g id="patch_19">
    <path d="M 175.649316 127.817278 
Q 124.364996 259.54189 114.27741 399.416369 
" clip-path="url(#p99dc0a26f3)" style="fill: none; stroke: #888888; stroke-linecap: round"/>
    <path d="M 116.559957 395.570595 
L 114.27741 399.416369 
L 112.570319 395.282867 
z
" clip-path="url(#p99dc0a26f3)" style="fill: #888888; stroke: #888888; stroke-linecap: round"/>
   </g>
   <g id="patch_20">
    <path d="M 291.180663 204.62684 
Q 166.600517 223.778045 54.099021 278.090102 
" clip-path="url(#p99dc0a26f3)" style="fill: none; stroke: #888888; stroke-linecap: round"/>
    <path d="M 58.570726 278.152177 
L 54.099021 278.090102 
L 56.831704 274.549983 
z
" clip-path="url(#p99dc0a26f3)" style="fill: #888888; stroke: #888888; stroke-linecap: round"/>
   </g>
   <g id="patch_21">
    <path d="M 295.183215 210.718736 
Q 267.909099 255.846051 254.121154 305.581308 
" clip-path="url(#p99dc0a26f3)" style="fill: none; stroke: #888888; stroke-linecap: round"/>
    <path d="M 257.117067 302.260991 
L 254.121154 305.581308 
L 253.262448 301.192387 
z
" clip-path="url(#p99dc0a26f3)" style="fill: #888888; stroke: #888888; stroke-linecap: round"/>
   </g>
   <g id="patch_22">
    <path d="M 293.435499 197.42257 
Q 245.241038 152.944359 187.606132 124.068073 
" clip-path="url(#p99dc0a26f3)" style="fill: none; stroke: #888888; stroke-linecap: round"/>
    <path d="M 190.286492 127.647971 
L 187.606132 124.068073 
L 192.078266 124.071723 
z
" clip-path="url(#p99dc0a26f3)" style="fill: #888888; stroke: #888888; stroke-linecap: round"/>
   </g>
   <g id="patch_23">
    <path d="M 307.153903 207.844679 
Q 350.863399 233.663534 398.819168 246.513433 
" clip-path="url(#p99dc0a26f3)" style="fill: none; stroke: #888888; stroke-linecap: round"/>
    <path d="M 395.473114 243.546293 
L 398.819168 246.513433 
L 394.437823 247.409992 
z
" clip-path="url(#p99dc0a26f3)" style="fill: #888888; stroke: #888888; stroke-linecap: round"/>
   </g>
   <g id="patch_24">
    <path d="M 399.643899 248.401742 
Q 224.248103 237.957638 54.796067 279.994878 
" clip-path="url(#p99dc0a26f3)" style="fill: none; stroke: #888888; stroke-linecap: round"/>
    <path d="M 59.159945 280.972921 
L 54.796067 279.994878 
L 58.196828 277.090602 
z
" clip-path="url(#p99dc0a26f3)" style="fill: #888888; stroke: #888888; stroke-linecap: round"/>
   </g>
   <g id="patch_25">
    <path d="M 406.915916 240.396451 
Q 391.598168 148.807987 351.167589 66.454725 
" clip-path="url(#p99dc0a26f3)" style="fill: none; stroke: #888888; stroke-linecap: round"/>
    <path d="M 351.135061 70.926743 
L 351.167589 66.454725 
L 354.725686 69.163958 
z
" clip-path="url(#p99dc0a26f3)" style="fill: #888888; stroke: #888888; stroke-linecap: round"/>
   </g>
   <g id="patch_26">
    <path d="M 399.894774 251.076233 
Q 325.163565 270.652121 259.941276 309.927163 
" clip-path="url(#p99dc0a26f3)" style="fill: none; stroke: #888888; stroke-linecap: round"/>
    <path d="M 264.399686 309.577051 
L 259.941276 309.927163 
L 262.336233 306.150368 
z
" clip-path="url(#p99dc0a26f3)" style="fill: #888888; stroke: #888888; stroke-linecap: round"/>
   </g>
   <g id="patch_27">
    <path d="M 400.011071 246.395913 
Q 270.315061 207.065172 135.905698 207.618765 
" clip-path="url(#p99dc0a26f3)" style="fill: none; stroke: #888888; stroke-linecap: round"/>
    <path d="M 139.913902 209.602273 
L 135.905698 207.618765 
L 139.897427 205.602307 
z
" clip-path="url(#p99dc0a26f3)" style="fill: #888888; stroke: #888888; stroke-linecap: round"/>
   </g>
   <g id="patch_28">
    <path d="M 400.134731 251.862996 
Q 248.769956 306.658769 121.383337 403.239327 
" clip-path="url(#p99dc0a26f3)" style="fill: none; stroke: #888888; stroke-linecap: round"/>
    <path d="M 125.779111 402.416425 
L 121.383337 403.239327 
L 123.362479 399.228966 
z
" clip-path="url(#p99dc0a26f3)" style="fill: #888888; stroke: #888888; stroke-linecap: round"/>
   </g>
   <g id="patch_29">
    <path d="M 121.765748 406.259249 
Q 273.130523 351.463476 400.517142 254.882918 
" clip-path="url(#p99dc0a26f3)" style="fill: none; stroke: #888888; stroke-linecap: round"/>
    <path d="M 396.121368 255.70582 
L 400.517142 254.882918 
L 398.538 258.893278 
z
" clip-path="url(#p99dc0a26f3)" style="fill: #888888; stroke: #888888; stroke-linecap: round"/>
   </g>
   <g id="text_1">
    <g id="patch_30">
     <path d="M 79.042149 249.74307 
L 92.401524 249.74307 
Q 94.201524 249.74307 94.201524 247.94307 
L 94.201524 242.136195 
Q 94.201524 240.336195 92.401524 240.336195 
L 79.042149 240.336195 
Q 77.242149 240.336195 77.242149 242.136195 
L 77.242149 247.94307 
Q 77.242149 249.74307 79.042149 249.74307 
z
" clip-path="url(#p99dc0a26f3)" style="fill: #ffffff; stroke: #ffffff; stroke-linejoin: miter"/>
    </g>
    <g clip-path="url(#p99dc0a26f3)">
     <!-- 3.33 -->
     <g transform="translate(79.042149 246.695257) scale(0.06 -0.06)">
      <defs>
       <path id="DejaVuSans-33" d="M 2597 2516 
Q 3050 2419 3304 2112 
Q 3559 1806 3559 1356 
Q 3559 666 3084 287 
Q 2609 -91 1734 -91 
Q 1441 -91 1130 -33 
Q 819 25 488 141 
L 488 750 
Q 750 597 1062 519 
Q 1375 441 1716 441 
Q 2309 441 2620 675 
Q 2931 909 2931 1356 
Q 2931 1769 2642 2001 
Q 2353 2234 1838 2234 
L 1294 2234 
L 1294 2753 
L 1863 2753 
Q 2328 2753 2575 2939 
Q 2822 3125 2822 3475 
Q 2822 3834 2567 4026 
Q 2313 4219 1838 4219 
Q 1578 4219 1281 4162 
Q 984 4106 628 3988 
L 628 4550 
Q 988 4650 1302 4700 
Q 1616 4750 1894 4750 
Q 2613 4750 3031 4423 
Q 3450 4097 3450 3541 
Q 3450 3153 3228 2886 
Q 3006 2619 2597 2516 
z
" transform="scale(0.015625)"/>
       <path id="DejaVuSans-2e" d="M 684 794 
L 1344 794 
L 1344 0 
L 684 0 
L 684 794 
z
" transform="scale(0.015625)"/>
      </defs>
      <use xlink:href="#DejaVuSans-33"/>
      <use xlink:href="#DejaVuSans-2e" transform="translate(63.623047 0)"/>
      <use xlink:href="#DejaVuSans-33" transform="translate(95.410156 0)"/>
      <use xlink:href="#DejaVuSans-33" transform="translate(159.033203 0)"/>
     </g>
    </g>
   </g>
   <g id="text_2">
    <g id="patch_31">
     <path d="M 105.390603 205.773271 
L 118.749978 205.773271 
Q 120.549978 205.773271 120.549978 203.973271 
L 120.549978 198.166396 
Q 120.549978 196.366396 118.749978 196.366396 
L 105.390603 196.366396 
Q 103.590603 196.366396 103.590603 198.166396 
L 103.590603 203.973271 
Q 103.590603 205.773271 105.390603 205.773271 
z
" clip-path="url(#p99dc0a26f3)" style="fill: #ffffff; stroke: #ffffff; stroke-linejoin: miter"/>
    </g>
    <g clip-path="url(#p99dc0a26f3)">
     <!-- 4.64 -->
     <g transform="translate(105.390603 202.725459) scale(0.06 -0.06)">
      <defs>
       <path id="DejaVuSans-34" d="M 2419 4116 
L 825 1625 
L 2419 1625 
L 2419 4116 
z
M 2253 4666 
L 3047 4666 
L 3047 1625 
L 3713 1625 
L 3713 1100 
L 3047 1100 
L 3047 0 
L 2419 0 
L 2419 1100 
L 313 1100 
L 313 1709 
L 2253 4666 
z
" transform="scale(0.015625)"/>
       <path id="DejaVuSans-36" d="M 2113 2584 
Q 1688 2584 1439 2293 
Q 1191 2003 1191 1497 
Q 1191 994 1439 701 
Q 1688 409 2113 409 
Q 2538 409 2786 701 
Q 3034 994 3034 1497 
Q 3034 2003 2786 2293 
Q 2538 2584 2113 2584 
z
M 3366 4563 
L 3366 3988 
Q 3128 4100 2886 4159 
Q 2644 4219 2406 4219 
Q 1781 4219 1451 3797 
Q 1122 3375 1075 2522 
Q 1259 2794 1537 2939 
Q 1816 3084 2150 3084 
Q 2853 3084 3261 2657 
Q 3669 2231 3669 1497 
Q 3669 778 3244 343 
Q 2819 -91 2113 -91 
Q 1303 -91 875 529 
Q 447 1150 447 2328 
Q 447 3434 972 4092 
Q 1497 4750 2381 4750 
Q 2619 4750 2861 4703 
Q 3103 4656 3366 4563 
z
" transform="scale(0.015625)"/>
      </defs>
      <use xlink:href="#DejaVuSans-34"/>
      <use xlink:href="#DejaVuSans-2e" transform="translate(63.623047 0)"/>
      <use xlink:href="#DejaVuSans-36" transform="translate(95.410156 0)"/>
      <use xlink:href="#DejaVuSans-34" transform="translate(159.033203 0)"/>
     </g>
    </g>
   </g>
   <g id="text_3">
    <g id="patch_32">
     <path d="M 220.122789 270.367495 
L 233.482164 270.367495 
Q 235.282164 270.367495 235.282164 268.567495 
L 235.282164 262.76062 
Q 235.282164 260.96062 233.482164 260.96062 
L 220.122789 260.96062 
Q 218.322789 260.96062 218.322789 262.76062 
L 218.322789 268.567495 
Q 218.322789 270.367495 220.122789 270.367495 
z
" clip-path="url(#p99dc0a26f3)" style="fill: #ffffff; stroke: #ffffff; stroke-linejoin: miter"/>
    </g>
    <g clip-path="url(#p99dc0a26f3)">
     <!-- 5.29 -->
     <g transform="translate(220.122789 267.319683) scale(0.06 -0.06)">
      <defs>
       <path id="DejaVuSans-35" d="M 691 4666 
L 3169 4666 
L 3169 4134 
L 1269 4134 
L 1269 2991 
Q 1406 3038 1543 3061 
Q 1681 3084 1819 3084 
Q 2600 3084 3056 2656 
Q 3513 2228 3513 1497 
Q 3513 744 3044 326 
Q 2575 -91 1722 -91 
Q 1428 -91 1123 -41 
Q 819 9 494 109 
L 494 744 
Q 775 591 1075 516 
Q 1375 441 1709 441 
Q 2250 441 2565 725 
Q 2881 1009 2881 1497 
Q 2881 1984 2565 2268 
Q 2250 2553 1709 2553 
Q 1456 2553 1204 2497 
Q 953 2441 691 2322 
L 691 4666 
z
" transform="scale(0.015625)"/>
       <path id="DejaVuSans-32" d="M 1228 531 
L 3431 531 
L 3431 0 
L 469 0 
L 469 531 
Q 828 903 1448 1529 
Q 2069 2156 2228 2338 
Q 2531 2678 2651 2914 
Q 2772 3150 2772 3378 
Q 2772 3750 2511 3984 
Q 2250 4219 1831 4219 
Q 1534 4219 1204 4116 
Q 875 4013 500 3803 
L 500 4441 
Q 881 4594 1212 4672 
Q 1544 4750 1819 4750 
Q 2544 4750 2975 4387 
Q 3406 4025 3406 3419 
Q 3406 3131 3298 2873 
Q 3191 2616 2906 2266 
Q 2828 2175 2409 1742 
Q 1991 1309 1228 531 
z
" transform="scale(0.015625)"/>
       <path id="DejaVuSans-39" d="M 703 97 
L 703 672 
Q 941 559 1184 500 
Q 1428 441 1663 441 
Q 2288 441 2617 861 
Q 2947 1281 2994 2138 
Q 2813 1869 2534 1725 
Q 2256 1581 1919 1581 
Q 1219 1581 811 2004 
Q 403 2428 403 3163 
Q 403 3881 828 4315 
Q 1253 4750 1959 4750 
Q 2769 4750 3195 4129 
Q 3622 3509 3622 2328 
Q 3622 1225 3098 567 
Q 2575 -91 1691 -91 
Q 1453 -91 1209 -44 
Q 966 3 703 97 
z
M 1959 2075 
Q 2384 2075 2632 2365 
Q 2881 2656 2881 3163 
Q 2881 3666 2632 3958 
Q 2384 4250 1959 4250 
Q 1534 4250 1286 3958 
Q 1038 3666 1038 3163 
Q 1038 2656 1286 2365 
Q 1534 2075 1959 2075 
z
" transform="scale(0.015625)"/>
      </defs>
      <use xlink:href="#DejaVuSans-35"/>
      <use xlink:href="#DejaVuSans-2e" transform="translate(63.623047 0)"/>
      <use xlink:href="#DejaVuSans-32" transform="translate(95.410156 0)"/>
      <use xlink:href="#DejaVuSans-39" transform="translate(159.033203 0)"/>
     </g>
    </g>
   </g>
   <g id="text_4">
    <g id="patch_33">
     <path d="M 72.783089 350.480836 
L 86.142464 350.480836 
Q 87.942464 350.480836 87.942464 348.680836 
L 87.942464 342.873961 
Q 87.942464 341.073961 86.142464 341.073961 
L 72.783089 341.073961 
Q 70.983089 341.073961 70.983089 342.873961 
L 70.983089 348.680836 
Q 70.983089 350.480836 72.783089 350.480836 
z
" clip-path="url(#p99dc0a26f3)" style="fill: #ffffff; stroke: #ffffff; stroke-linejoin: miter"/>
    </g>
    <g clip-path="url(#p99dc0a26f3)">
     <!-- 9.17 -->
     <g transform="translate(72.783089 347.433024) scale(0.06 -0.06)">
      <defs>
       <path id="DejaVuSans-31" d="M 794 531 
L 1825 531 
L 1825 4091 
L 703 3866 
L 703 4441 
L 1819 4666 
L 2450 4666 
L 2450 531 
L 3481 531 
L 3481 0 
L 794 0 
L 794 531 
z
" transform="scale(0.015625)"/>
       <path id="DejaVuSans-37" d="M 525 4666 
L 3525 4666 
L 3525 4397 
L 1831 0 
L 1172 0 
L 2766 4134 
L 525 4134 
L 525 4666 
z
" transform="scale(0.015625)"/>
      </defs>
      <use xlink:href="#DejaVuSans-39"/>
      <use xlink:href="#DejaVuSans-2e" transform="translate(63.623047 0)"/>
      <use xlink:href="#DejaVuSans-31" transform="translate(95.410156 0)"/>
      <use xlink:href="#DejaVuSans-37" transform="translate(159.033203 0)"/>
     </g>
    </g>
   </g>
   <g id="text_5">
    <g id="patch_34">
     <path d="M 189.38075 174.744349 
L 202.740125 174.744349 
Q 204.540125 174.744349 204.540125 172.944349 
L 204.540125 167.137474 
Q 204.540125 165.337474 202.740125 165.337474 
L 189.38075 165.337474 
Q 187.58075 165.337474 187.58075 167.137474 
L 187.58075 172.944349 
Q 187.58075 174.744349 189.38075 174.744349 
z
" clip-path="url(#p99dc0a26f3)" style="fill: #ffffff; stroke: #ffffff; stroke-linejoin: miter"/>
    </g>
    <g clip-path="url(#p99dc0a26f3)">
     <!-- 3.54 -->
     <g transform="translate(189.38075 171.696536) scale(0.06 -0.06)">
      <use xlink:href="#DejaVuSans-33"/>
      <use xlink:href="#DejaVuSans-2e" transform="translate(63.623047 0)"/>
      <use xlink:href="#DejaVuSans-35" transform="translate(95.410156 0)"/>
      <use xlink:href="#DejaVuSans-34" transform="translate(159.033203 0)"/>
     </g>
    </g>
   </g>
   <g id="text_6">
    <g id="patch_35">
     <path d="M 256.13915 93.433837 
L 269.498525 93.433837 
Q 271.298525 93.433837 271.298525 91.633837 
L 271.298525 85.826962 
Q 271.298525 84.026962 269.498525 84.026962 
L 256.13915 84.026962 
Q 254.33915 84.026962 254.33915 85.826962 
L 254.33915 91.633837 
Q 254.33915 93.433837 256.13915 93.433837 
z
" clip-path="url(#p99dc0a26f3)" style="fill: #ffffff; stroke: #ffffff; stroke-linejoin: miter"/>
    </g>
    <g clip-path="url(#p99dc0a26f3)">
     <!-- 9.19 -->
     <g transform="translate(256.13915 90.386025) scale(0.06 -0.06)">
      <use xlink:href="#DejaVuSans-39"/>
      <use xlink:href="#DejaVuSans-2e" transform="translate(63.623047 0)"/>
      <use xlink:href="#DejaVuSans-31" transform="translate(95.410156 0)"/>
      <use xlink:href="#DejaVuSans-39" transform="translate(159.033203 0)"/>
     </g>
    </g>
   </g>
   <g id="text_7">
    <g id="patch_36">
     <path d="M 141.777871 303.408183 
L 155.137246 303.408183 
Q 156.937246 303.408183 156.937246 301.608183 
L 156.937246 295.801308 
Q 156.937246 294.001308 155.137246 294.001308 
L 141.777871 294.001308 
Q 139.977871 294.001308 139.977871 295.801308 
L 139.977871 301.608183 
Q 139.977871 303.408183 141.777871 303.408183 
z
" clip-path="url(#p99dc0a26f3)" style="fill: #ffffff; stroke: #ffffff; stroke-linejoin: miter"/>
    </g>
    <g clip-path="url(#p99dc0a26f3)">
     <!-- 7.57 -->
     <g transform="translate(141.777871 300.36037) scale(0.06 -0.06)">
      <use xlink:href="#DejaVuSans-37"/>
      <use xlink:href="#DejaVuSans-2e" transform="translate(63.623047 0)"/>
      <use xlink:href="#DejaVuSans-35" transform="translate(95.410156 0)"/>
      <use xlink:href="#DejaVuSans-37" transform="translate(159.033203 0)"/>
     </g>
    </g>
   </g>
   <g id="text_8">
    <g id="patch_37">
     <path d="M 208.535249 222.097242 
L 221.894624 222.097242 
Q 223.694624 222.097242 223.694624 220.297242 
L 223.694624 214.490367 
Q 223.694624 212.690367 221.894624 212.690367 
L 208.535249 212.690367 
Q 206.735249 212.690367 206.735249 214.490367 
L 206.735249 220.297242 
Q 206.735249 222.097242 208.535249 222.097242 
z
" clip-path="url(#p99dc0a26f3)" style="fill: #ffffff; stroke: #ffffff; stroke-linejoin: miter"/>
    </g>
    <g clip-path="url(#p99dc0a26f3)">
     <!-- 1.91 -->
     <g transform="translate(208.535249 219.049429) scale(0.06 -0.06)">
      <use xlink:href="#DejaVuSans-31"/>
      <use xlink:href="#DejaVuSans-2e" transform="translate(63.623047 0)"/>
      <use xlink:href="#DejaVuSans-39" transform="translate(95.410156 0)"/>
      <use xlink:href="#DejaVuSans-31" transform="translate(159.033203 0)"/>
     </g>
    </g>
   </g>
   <g id="text_9">
    <g id="patch_38">
     <path d="M 270.901942 263.896815 
L 280.443817 263.896815 
Q 282.243817 263.896815 282.243817 262.096815 
L 282.243817 256.28994 
Q 282.243817 254.48994 280.443817 254.48994 
L 270.901942 254.48994 
Q 269.101942 254.48994 269.101942 256.28994 
L 269.101942 262.096815 
Q 269.101942 263.896815 270.901942 263.896815 
z
" clip-path="url(#p99dc0a26f3)" style="fill: #ffffff; stroke: #ffffff; stroke-linejoin: miter"/>
    </g>
    <g clip-path="url(#p99dc0a26f3)">
     <!-- 6.5 -->
     <g transform="translate(270.901942 260.849002) scale(0.06 -0.06)">
      <use xlink:href="#DejaVuSans-36"/>
      <use xlink:href="#DejaVuSans-2e" transform="translate(63.623047 0)"/>
      <use xlink:href="#DejaVuSans-35" transform="translate(95.410156 0)"/>
     </g>
    </g>
   </g>
   <g id="text_10">
    <g id="patch_39">
     <path d="M 79.041422 249.743742 
L 92.400797 249.743742 
Q 94.200797 249.743742 94.200797 247.943742 
L 94.200797 242.136867 
Q 94.200797 240.336867 92.400797 240.336867 
L 79.041422 240.336867 
Q 77.241422 240.336867 77.241422 242.136867 
L 77.241422 247.943742 
Q 77.241422 249.743742 79.041422 249.743742 
z
" clip-path="url(#p99dc0a26f3)" style="fill: #ffffff; stroke: #ffffff; stroke-linejoin: miter"/>
    </g>
    <g clip-path="url(#p99dc0a26f3)">
     <!-- 8.79 -->
     <g transform="translate(79.041422 246.695929) scale(0.06 -0.06)">
      <defs>
       <path id="DejaVuSans-38" d="M 2034 2216 
Q 1584 2216 1326 1975 
Q 1069 1734 1069 1313 
Q 1069 891 1326 650 
Q 1584 409 2034 409 
Q 2484 409 2743 651 
Q 3003 894 3003 1313 
Q 3003 1734 2745 1975 
Q 2488 2216 2034 2216 
z
M 1403 2484 
Q 997 2584 770 2862 
Q 544 3141 544 3541 
Q 544 4100 942 4425 
Q 1341 4750 2034 4750 
Q 2731 4750 3128 4425 
Q 3525 4100 3525 3541 
Q 3525 3141 3298 2862 
Q 3072 2584 2669 2484 
Q 3125 2378 3379 2068 
Q 3634 1759 3634 1313 
Q 3634 634 3220 271 
Q 2806 -91 2034 -91 
Q 1263 -91 848 271 
Q 434 634 434 1313 
Q 434 1759 690 2068 
Q 947 2378 1403 2484 
z
M 1172 3481 
Q 1172 3119 1398 2916 
Q 1625 2713 2034 2713 
Q 2441 2713 2670 2916 
Q 2900 3119 2900 3481 
Q 2900 3844 2670 4047 
Q 2441 4250 2034 4250 
Q 1625 4250 1398 4047 
Q 1172 3844 1172 3481 
z
" transform="scale(0.015625)"/>
      </defs>
      <use xlink:href="#DejaVuSans-38"/>
      <use xlink:href="#DejaVuSans-2e" transform="translate(63.623047 0)"/>
      <use xlink:href="#DejaVuSans-37" transform="translate(95.410156 0)"/>
      <use xlink:href="#DejaVuSans-39" transform="translate(159.033203 0)"/>
     </g>
    </g>
   </g>
   <g id="text_11">
    <g id="patch_40">
     <path d="M 229.78784 137.405427 
L 243.147215 137.405427 
Q 244.947215 137.405427 244.947215 135.605427 
L 244.947215 129.798552 
Q 244.947215 127.998552 243.147215 127.998552 
L 229.78784 127.998552 
Q 227.98784 127.998552 227.98784 129.798552 
L 227.98784 135.605427 
Q 227.98784 137.405427 229.78784 137.405427 
z
" clip-path="url(#p99dc0a26f3)" style="fill: #ffffff; stroke: #ffffff; stroke-linejoin: miter"/>
    </g>
    <g clip-path="url(#p99dc0a26f3)">
     <!-- 8.25 -->
     <g transform="translate(229.78784 134.357614) scale(0.06 -0.06)">
      <use xlink:href="#DejaVuSans-38"/>
      <use xlink:href="#DejaVuSans-2e" transform="translate(63.623047 0)"/>
      <use xlink:href="#DejaVuSans-32" transform="translate(95.410156 0)"/>
      <use xlink:href="#DejaVuSans-35" transform="translate(159.033203 0)"/>
     </g>
    </g>
   </g>
   <g id="text_12">
    <g id="patch_41">
     <path d="M 182.187328 266.068687 
L 195.546703 266.068687 
Q 197.346703 266.068687 197.346703 264.268687 
L 197.346703 258.461812 
Q 197.346703 256.661812 195.546703 256.661812 
L 182.187328 256.661812 
Q 180.387328 256.661812 180.387328 258.461812 
L 180.387328 264.268687 
Q 180.387328 266.068687 182.187328 266.068687 
z
" clip-path="url(#p99dc0a26f3)" style="fill: #ffffff; stroke: #ffffff; stroke-linejoin: miter"/>
    </g>
    <g clip-path="url(#p99dc0a26f3)">
     <!-- 1.13 -->
     <g transform="translate(182.187328 263.020874) scale(0.06 -0.06)">
      <use xlink:href="#DejaVuSans-31"/>
      <use xlink:href="#DejaVuSans-2e" transform="translate(63.623047 0)"/>
      <use xlink:href="#DejaVuSans-31" transform="translate(95.410156 0)"/>
      <use xlink:href="#DejaVuSans-33" transform="translate(159.033203 0)"/>
     </g>
    </g>
   </g>
   <g id="text_13">
    <g id="patch_42">
     <path d="M 206.260675 210.230261 
L 219.62005 210.230261 
Q 221.42005 210.230261 221.42005 208.430261 
L 221.42005 202.623386 
Q 221.42005 200.823386 219.62005 200.823386 
L 206.260675 200.823386 
Q 204.460675 200.823386 204.460675 202.623386 
L 204.460675 208.430261 
Q 204.460675 210.230261 206.260675 210.230261 
z
" clip-path="url(#p99dc0a26f3)" style="fill: #ffffff; stroke: #ffffff; stroke-linejoin: miter"/>
    </g>
    <g clip-path="url(#p99dc0a26f3)">
     <!-- 8.42 -->
     <g transform="translate(206.260675 207.182449) scale(0.06 -0.06)">
      <use xlink:href="#DejaVuSans-38"/>
      <use xlink:href="#DejaVuSans-2e" transform="translate(63.623047 0)"/>
      <use xlink:href="#DejaVuSans-34" transform="translate(95.410156 0)"/>
      <use xlink:href="#DejaVuSans-32" transform="translate(159.033203 0)"/>
     </g>
    </g>
   </g>
   <g id="text_14">
    <g id="patch_43">
     <path d="M 113.192028 313.140204 
L 126.551403 313.140204 
Q 128.351403 313.140204 128.351403 311.340204 
L 128.351403 305.533329 
Q 128.351403 303.733329 126.551403 303.733329 
L 113.192028 303.733329 
Q 111.392028 303.733329 111.392028 305.533329 
L 111.392028 311.340204 
Q 111.392028 313.140204 113.192028 313.140204 
z
" clip-path="url(#p99dc0a26f3)" style="fill: #ffffff; stroke: #ffffff; stroke-linejoin: miter"/>
    </g>
    <g clip-path="url(#p99dc0a26f3)">
     <!-- 5.44 -->
     <g transform="translate(113.192028 310.092392) scale(0.06 -0.06)">
      <use xlink:href="#DejaVuSans-35"/>
      <use xlink:href="#DejaVuSans-2e" transform="translate(63.623047 0)"/>
      <use xlink:href="#DejaVuSans-34" transform="translate(95.410156 0)"/>
      <use xlink:href="#DejaVuSans-34" transform="translate(159.033203 0)"/>
     </g>
    </g>
   </g>
   <g id="text_15">
    <g id="patch_44">
     <path d="M 256.136768 93.434717 
L 269.496143 93.434717 
Q 271.296143 93.434717 271.296143 91.634717 
L 271.296143 85.827842 
Q 271.296143 84.027842 269.496143 84.027842 
L 256.136768 84.027842 
Q 254.336768 84.027842 254.336768 85.827842 
L 254.336768 91.634717 
Q 254.336768 93.434717 256.136768 93.434717 
z
" clip-path="url(#p99dc0a26f3)" style="fill: #ffffff; stroke: #ffffff; stroke-linejoin: miter"/>
    </g>
    <g clip-path="url(#p99dc0a26f3)">
     <!-- 3.93 -->
     <g transform="translate(256.136768 90.386904) scale(0.06 -0.06)">
      <use xlink:href="#DejaVuSans-33"/>
      <use xlink:href="#DejaVuSans-2e" transform="translate(63.623047 0)"/>
      <use xlink:href="#DejaVuSans-39" transform="translate(95.410156 0)"/>
      <use xlink:href="#DejaVuSans-33" transform="translate(159.033203 0)"/>
     </g>
    </g>
   </g>
   <g id="text_16">
    <g id="patch_45">
     <path d="M 145.800509 168.431663 
L 159.159884 168.431663 
Q 160.959884 168.431663 160.959884 166.631663 
L 160.959884 160.824788 
Q 160.959884 159.024788 159.159884 159.024788 
L 145.800509 159.024788 
Q 144.000509 159.024788 144.000509 160.824788 
L 144.000509 166.631663 
Q 144.000509 168.431663 145.800509 168.431663 
z
" clip-path="url(#p99dc0a26f3)" style="fill: #ffffff; stroke: #ffffff; stroke-linejoin: miter"/>
    </g>
    <g clip-path="url(#p99dc0a26f3)">
     <!-- 6.11 -->
     <g transform="translate(145.800509 165.383851) scale(0.06 -0.06)">
      <use xlink:href="#DejaVuSans-36"/>
      <use xlink:href="#DejaVuSans-2e" transform="translate(63.623047 0)"/>
      <use xlink:href="#DejaVuSans-31" transform="translate(95.410156 0)"/>
      <use xlink:href="#DejaVuSans-31" transform="translate(159.033203 0)"/>
     </g>
    </g>
   </g>
   <g id="text_17">
    <g id="patch_46">
     <path d="M 232.609287 166.260987 
L 245.968662 166.260987 
Q 247.768662 166.260987 247.768662 164.460987 
L 247.768662 158.654112 
Q 247.768662 156.854112 245.968662 156.854112 
L 232.609287 156.854112 
Q 230.809287 156.854112 230.809287 158.654112 
L 230.809287 164.460987 
Q 230.809287 166.260987 232.609287 166.260987 
z
" clip-path="url(#p99dc0a26f3)" style="fill: #ffffff; stroke: #ffffff; stroke-linejoin: miter"/>
    </g>
    <g clip-path="url(#p99dc0a26f3)">
     <!-- 9.71 -->
     <g transform="translate(232.609287 163.213174) scale(0.06 -0.06)">
      <use xlink:href="#DejaVuSans-39"/>
      <use xlink:href="#DejaVuSans-2e" transform="translate(63.623047 0)"/>
      <use xlink:href="#DejaVuSans-37" transform="translate(95.410156 0)"/>
      <use xlink:href="#DejaVuSans-31" transform="translate(159.033203 0)"/>
     </g>
    </g>
   </g>
   <g id="text_18">
    <g id="patch_47">
     <path d="M 139.541316 269.168784 
L 152.900691 269.168784 
Q 154.700691 269.168784 154.700691 267.368784 
L 154.700691 261.561909 
Q 154.700691 259.761909 152.900691 259.761909 
L 139.541316 259.761909 
Q 137.741316 259.761909 137.741316 261.561909 
L 137.741316 267.368784 
Q 137.741316 269.168784 139.541316 269.168784 
z
" clip-path="url(#p99dc0a26f3)" style="fill: #ffffff; stroke: #ffffff; stroke-linejoin: miter"/>
    </g>
    <g clip-path="url(#p99dc0a26f3)">
     <!-- 1.72 -->
     <g transform="translate(139.541316 266.120972) scale(0.06 -0.06)">
      <use xlink:href="#DejaVuSans-31"/>
      <use xlink:href="#DejaVuSans-2e" transform="translate(63.623047 0)"/>
      <use xlink:href="#DejaVuSans-37" transform="translate(95.410156 0)"/>
      <use xlink:href="#DejaVuSans-32" transform="translate(159.033203 0)"/>
     </g>
    </g>
   </g>
   <g id="text_19">
    <g id="patch_48">
     <path d="M 165.846512 247.571591 
L 179.205887 247.571591 
Q 181.005887 247.571591 181.005887 245.771591 
L 181.005887 239.964716 
Q 181.005887 238.164716 179.205887 238.164716 
L 165.846512 238.164716 
Q 164.046512 238.164716 164.046512 239.964716 
L 164.046512 245.771591 
Q 164.046512 247.571591 165.846512 247.571591 
z
" clip-path="url(#p99dc0a26f3)" style="fill: #ffffff; stroke: #ffffff; stroke-linejoin: miter"/>
    </g>
    <g clip-path="url(#p99dc0a26f3)">
     <!-- 5.57 -->
     <g transform="translate(165.846512 244.523779) scale(0.06 -0.06)">
      <use xlink:href="#DejaVuSans-35"/>
      <use xlink:href="#DejaVuSans-2e" transform="translate(63.623047 0)"/>
      <use xlink:href="#DejaVuSans-35" transform="translate(95.410156 0)"/>
      <use xlink:href="#DejaVuSans-37" transform="translate(159.033203 0)"/>
     </g>
    </g>
   </g>
   <g id="text_20">
    <g id="patch_49">
     <path d="M 268.99478 263.893132 
L 282.354155 263.893132 
Q 284.154155 263.893132 284.154155 262.093132 
L 284.154155 256.286257 
Q 284.154155 254.486257 282.354155 254.486257 
L 268.99478 254.486257 
Q 267.19478 254.486257 267.19478 256.286257 
L 267.19478 262.093132 
Q 267.19478 263.893132 268.99478 263.893132 
z
" clip-path="url(#p99dc0a26f3)" style="fill: #ffffff; stroke: #ffffff; stroke-linejoin: miter"/>
    </g>
    <g clip-path="url(#p99dc0a26f3)">
     <!-- 5.96 -->
     <g transform="translate(268.99478 260.845319) scale(0.06 -0.06)">
      <use xlink:href="#DejaVuSans-35"/>
      <use xlink:href="#DejaVuSans-2e" transform="translate(63.623047 0)"/>
      <use xlink:href="#DejaVuSans-39" transform="translate(95.410156 0)"/>
      <use xlink:href="#DejaVuSans-36" transform="translate(159.033203 0)"/>
     </g>
    </g>
   </g>
   <g id="text_21">
    <g id="patch_50">
     <path d="M 232.606098 166.258782 
L 245.965473 166.258782 
Q 247.765473 166.258782 247.765473 164.458782 
L 247.765473 158.651907 
Q 247.765473 156.851907 245.965473 156.851907 
L 232.606098 156.851907 
Q 230.806098 156.851907 230.806098 158.651907 
L 230.806098 164.458782 
Q 230.806098 166.258782 232.606098 166.258782 
z
" clip-path="url(#p99dc0a26f3)" style="fill: #ffffff; stroke: #ffffff; stroke-linejoin: miter"/>
    </g>
    <g clip-path="url(#p99dc0a26f3)">
     <!-- 8.33 -->
     <g transform="translate(232.606098 163.210969) scale(0.06 -0.06)">
      <use xlink:href="#DejaVuSans-38"/>
      <use xlink:href="#DejaVuSans-2e" transform="translate(63.623047 0)"/>
      <use xlink:href="#DejaVuSans-33" transform="translate(95.410156 0)"/>
      <use xlink:href="#DejaVuSans-33" transform="translate(159.033203 0)"/>
     </g>
    </g>
   </g>
   <g id="text_22">
    <g id="patch_51">
     <path d="M 347.33944 230.855587 
L 360.698815 230.855587 
Q 362.498815 230.855587 362.498815 229.055587 
L 362.498815 223.248712 
Q 362.498815 221.448712 360.698815 221.448712 
L 347.33944 221.448712 
Q 345.53944 221.448712 345.53944 223.248712 
L 345.53944 229.055587 
Q 345.53944 230.855587 347.33944 230.855587 
z
" clip-path="url(#p99dc0a26f3)" style="fill: #ffffff; stroke: #ffffff; stroke-linejoin: miter"/>
    </g>
    <g clip-path="url(#p99dc0a26f3)">
     <!-- 9.67 -->
     <g transform="translate(347.33944 227.807775) scale(0.06 -0.06)">
      <use xlink:href="#DejaVuSans-39"/>
      <use xlink:href="#DejaVuSans-2e" transform="translate(63.623047 0)"/>
      <use xlink:href="#DejaVuSans-36" transform="translate(95.410156 0)"/>
      <use xlink:href="#DejaVuSans-37" transform="translate(159.033203 0)"/>
     </g>
    </g>
   </g>
   <g id="text_23">
    <g id="patch_52">
     <path d="M 222.026586 270.367951 
L 231.568461 270.367951 
Q 233.368461 270.367951 233.368461 268.567951 
L 233.368461 262.761076 
Q 233.368461 260.961076 231.568461 260.961076 
L 222.026586 260.961076 
Q 220.226586 260.961076 220.226586 262.761076 
L 220.226586 268.567951 
Q 220.226586 270.367951 222.026586 270.367951 
z
" clip-path="url(#p99dc0a26f3)" style="fill: #ffffff; stroke: #ffffff; stroke-linejoin: miter"/>
    </g>
    <g clip-path="url(#p99dc0a26f3)">
     <!-- 5.0 -->
     <g transform="translate(222.026586 267.320139) scale(0.06 -0.06)">
      <defs>
       <path id="DejaVuSans-30" d="M 2034 4250 
Q 1547 4250 1301 3770 
Q 1056 3291 1056 2328 
Q 1056 1369 1301 889 
Q 1547 409 2034 409 
Q 2525 409 2770 889 
Q 3016 1369 3016 2328 
Q 3016 3291 2770 3770 
Q 2525 4250 2034 4250 
z
M 2034 4750 
Q 2819 4750 3233 4129 
Q 3647 3509 3647 2328 
Q 3647 1150 3233 529 
Q 2819 -91 2034 -91 
Q 1250 -91 836 529 
Q 422 1150 422 2328 
Q 422 3509 836 4129 
Q 1250 4750 2034 4750 
z
" transform="scale(0.015625)"/>
      </defs>
      <use xlink:href="#DejaVuSans-35"/>
      <use xlink:href="#DejaVuSans-2e" transform="translate(63.623047 0)"/>
      <use xlink:href="#DejaVuSans-30" transform="translate(95.410156 0)"/>
     </g>
    </g>
   </g>
   <g id="text_24">
    <g id="patch_53">
     <path d="M 370.86776 158.030055 
L 384.227135 158.030055 
Q 386.027135 158.030055 386.027135 156.230055 
L 386.027135 150.42318 
Q 386.027135 148.62318 384.227135 148.62318 
L 370.86776 148.62318 
Q 369.06776 148.62318 369.06776 150.42318 
L 369.06776 156.230055 
Q 369.06776 158.030055 370.86776 158.030055 
z
" clip-path="url(#p99dc0a26f3)" style="fill: #ffffff; stroke: #ffffff; stroke-linejoin: miter"/>
    </g>
    <g clip-path="url(#p99dc0a26f3)">
     <!-- 4.46 -->
     <g transform="translate(370.86776 154.982243) scale(0.06 -0.06)">
      <use xlink:href="#DejaVuSans-34"/>
      <use xlink:href="#DejaVuSans-2e" transform="translate(63.623047 0)"/>
      <use xlink:href="#DejaVuSans-34" transform="translate(95.410156 0)"/>
      <use xlink:href="#DejaVuSans-36" transform="translate(159.033203 0)"/>
     </g>
    </g>
   </g>
   <g id="text_25">
    <g id="patch_54">
     <path d="M 323.266974 286.691109 
L 336.626349 286.691109 
Q 338.426349 286.691109 338.426349 284.891109 
L 338.426349 279.084234 
Q 338.426349 277.284234 336.626349 277.284234 
L 323.266974 277.284234 
Q 321.466974 277.284234 321.466974 279.084234 
L 321.466974 284.891109 
Q 321.466974 286.691109 323.266974 286.691109 
z
" clip-path="url(#p99dc0a26f3)" style="fill: #ffffff; stroke: #ffffff; stroke-linejoin: miter"/>
    </g>
    <g clip-path="url(#p99dc0a26f3)">
     <!-- 3.61 -->
     <g transform="translate(323.266974 283.643297) scale(0.06 -0.06)">
      <use xlink:href="#DejaVuSans-33"/>
      <use xlink:href="#DejaVuSans-2e" transform="translate(63.623047 0)"/>
      <use xlink:href="#DejaVuSans-36" transform="translate(95.410156 0)"/>
      <use xlink:href="#DejaVuSans-31" transform="translate(159.033203 0)"/>
     </g>
    </g>
   </g>
   <g id="text_26">
    <g id="patch_55">
     <path d="M 260.528591 233.027274 
L 273.887966 233.027274 
Q 275.687966 233.027274 275.687966 231.227274 
L 275.687966 225.420399 
Q 275.687966 223.620399 273.887966 223.620399 
L 260.528591 223.620399 
Q 258.728591 223.620399 258.728591 225.420399 
L 258.728591 231.227274 
Q 258.728591 233.027274 260.528591 233.027274 
z
" clip-path="url(#p99dc0a26f3)" style="fill: #ffffff; stroke: #ffffff; stroke-linejoin: miter"/>
    </g>
    <g clip-path="url(#p99dc0a26f3)">
     <!-- 2.68 -->
     <g transform="translate(260.528591 229.979461) scale(0.06 -0.06)">
      <use xlink:href="#DejaVuSans-32"/>
      <use xlink:href="#DejaVuSans-2e" transform="translate(63.623047 0)"/>
      <use xlink:href="#DejaVuSans-36" transform="translate(95.410156 0)"/>
      <use xlink:href="#DejaVuSans-38" transform="translate(159.033203 0)"/>
     </g>
    </g>
   </g>
   <g id="text_27">
    <g id="patch_56">
     <path d="M 254.269745 333.764999 
L 267.62912 333.764999 
Q 269.42912 333.764999 269.42912 331.964999 
L 269.42912 326.158124 
Q 269.42912 324.358124 267.62912 324.358124 
L 254.269745 324.358124 
Q 252.469745 324.358124 252.469745 326.158124 
L 252.469745 331.964999 
Q 252.469745 333.764999 254.269745 333.764999 
z
" clip-path="url(#p99dc0a26f3)" style="fill: #ffffff; stroke: #ffffff; stroke-linejoin: miter"/>
    </g>
    <g clip-path="url(#p99dc0a26f3)">
     <!-- 1.81 -->
     <g transform="translate(254.269745 330.717186) scale(0.06 -0.06)">
      <use xlink:href="#DejaVuSans-31"/>
      <use xlink:href="#DejaVuSans-2e" transform="translate(63.623047 0)"/>
      <use xlink:href="#DejaVuSans-38" transform="translate(95.410156 0)"/>
      <use xlink:href="#DejaVuSans-31" transform="translate(159.033203 0)"/>
     </g>
    </g>
   </g>
   <g id="text_28">
    <g id="patch_57">
     <path d="M 254.271359 333.764121 
L 267.630734 333.764121 
Q 269.430734 333.764121 269.430734 331.964121 
L 269.430734 326.157246 
Q 269.430734 324.357246 267.630734 324.357246 
L 254.271359 324.357246 
Q 252.471359 324.357246 252.471359 326.157246 
L 252.471359 331.964121 
Q 252.471359 333.764121 254.271359 333.764121 
z
" clip-path="url(#p99dc0a26f3)" style="fill: #ffffff; stroke: #ffffff; stroke-linejoin: miter"/>
    </g>
    <g clip-path="url(#p99dc0a26f3)">
     <!-- 4.52 -->
     <g transform="translate(254.271359 330.716309) scale(0.06 -0.06)">
      <use xlink:href="#DejaVuSans-34"/>
      <use xlink:href="#DejaVuSans-2e" transform="translate(63.623047 0)"/>
      <use xlink:href="#DejaVuSans-35" transform="translate(95.410156 0)"/>
      <use xlink:href="#DejaVuSans-32" transform="translate(159.033203 0)"/>
     </g>
    </g>
   </g>
   <g id="PathCollection_1">
    <defs>
     <path id="m46a954af8a" d="M 0 14.73092 
C 3.906686 14.73092 7.653889 13.178777 10.416333 10.416333 
C 13.178777 7.653889 14.73092 3.906686 14.73092 0 
C 14.73092 -3.906686 13.178777 -7.653889 10.416333 -10.416333 
C 7.653889 -13.178777 3.906686 -14.73092 0 -14.73092 
C -3.906686 -14.73092 -7.653889 -13.178777 -10.416333 -10.416333 
C -13.178777 -7.653889 -14.73092 -3.906686 -14.73092 0 
C -14.73092 3.906686 -13.178777 7.653889 -10.416333 10.416333 
C -7.653889 13.178777 -3.906686 14.73092 0 14.73092 
z
" style="stroke: #274472"/>
    </defs>
    <g clip-path="url(#p99dc0a26f3)">
     <use xlink:href="#m46a954af8a" x="45.312397" y="282.380301" style="fill: #cfe3ff; stroke: #274472"/>
     <use xlink:href="#m46a954af8a" x="346.806627" y="57.7029" style="fill: #cfe3ff; stroke: #274472"/>
     <use xlink:href="#m46a954af8a" x="251.601253" y="315.028957" style="fill: #cfe3ff; stroke: #274472"/>
     <use xlink:href="#m46a954af8a" x="126.13055" y="207.699635" style="fill: #cfe3ff; stroke: #274472"/>
     <use xlink:href="#m46a954af8a" x="178.828666" y="119.758779" style="fill: #cfe3ff; stroke: #274472"/>
     <use xlink:href="#m46a954af8a" x="299.746093" y="203.354115" style="fill: #cfe3ff; stroke: #274472"/>
     <use xlink:href="#m46a954af8a" x="408.287603" y="248.94827" style="fill: #cfe3ff; stroke: #274472"/>
     <use xlink:href="#m46a954af8a" x="113.612876" y="409.173975" style="fill: #cfe3ff; stroke: #274472"/>
    </g>
   </g>
   <g id="text_29">
    <g clip-path="url(#p99dc0a26f3)">
     <!-- N0 -->
     <g transform="translate(37.698334 285.415614) scale(0.11 -0.11)">
      <defs>
       <path id="DejaVuSans-4e" d="M 628 4666 
L 1478 4666 
L 3547 763 
L 3547 4666 
L 4159 4666 
L 4159 0 
L 3309 0 
L 1241 3903 
L 1241 0 
L 628 0 
L 628 4666 
z
" transform="scale(0.015625)"/>
      </defs>
      <use xlink:href="#DejaVuSans-4e"/>
      <use xlink:href="#DejaVuSans-30" transform="translate(74.804688 0)"/>
     </g>
    </g>
   </g>
   <g id="text_30">
    <g clip-path="url(#p99dc0a26f3)">
     <!-- N1 -->
     <g transform="translate(339.192565 60.738213) scale(0.11 -0.11)">
      <use xlink:href="#DejaVuSans-4e"/>
      <use xlink:href="#DejaVuSans-31" transform="translate(74.804688 0)"/>
     </g>
    </g>
   </g>
   <g id="text_31">
    <g clip-path="url(#p99dc0a26f3)">
     <!-- N2 -->
     <g transform="translate(243.987191 318.06427) scale(0.11 -0.11)">
      <use xlink:href="#DejaVuSans-4e"/>
      <use xlink:href="#DejaVuSans-32" transform="translate(74.804688 0)"/>
     </g>
    </g>
   </g>
   <g id="text_32">
    <g clip-path="url(#p99dc0a26f3)">
     <!-- N3 -->
     <g transform="translate(118.516487 210.734948) scale(0.11 -0.11)">
      <use xlink:href="#DejaVuSans-4e"/>
      <use xlink:href="#DejaVuSans-33" transform="translate(74.804688 0)"/>
     </g>
    </g>
   </g>
   <g id="text_33">
    <g clip-path="url(#p99dc0a26f3)">
     <!-- N4 -->
     <g transform="translate(171.214604 122.794091) scale(0.11 -0.11)">
      <use xlink:href="#DejaVuSans-4e"/>
      <use xlink:href="#DejaVuSans-34" transform="translate(74.804688 0)"/>
     </g>
    </g>
   </g>
   <g id="text_34">
    <g clip-path="url(#p99dc0a26f3)">
     <!-- N5 -->
     <g transform="translate(292.132031 206.389427) scale(0.11 -0.11)">
      <use xlink:href="#DejaVuSans-4e"/>
      <use xlink:href="#DejaVuSans-35" transform="translate(74.804688 0)"/>
     </g>
    </g>
   </g>
   <g id="text_35">
    <g clip-path="url(#p99dc0a26f3)">
     <!-- N6 -->
     <g transform="translate(400.673541 251.983583) scale(0.11 -0.11)">
      <use xlink:href="#DejaVuSans-4e"/>
      <use xlink:href="#DejaVuSans-36" transform="translate(74.804688 0)"/>
     </g>
    </g>
   </g>
   <g id="text_36">
    <g clip-path="url(#p99dc0a26f3)">
     <!-- N7 -->
     <g transform="translate(105.998813 412.209287) scale(0.11 -0.11)">
      <use xlink:href="#DejaVuSans-4e"/>
      <use xlink:href="#DejaVuSans-37" transform="translate(74.804688 0)"/>
     </g>
    </g>
   </g>
   <g id="text_37">
    <!-- random-small-n8-s0 -->
    <g transform="translate(176.542969 14.798437) scale(0.1 -0.1)">
     <defs>
      <path id="DejaVuSans-72" d="M 2631 2963 
Q 2534 3019 2420 3045 
Q 2306 3072 2169 3072 
Q 1681 3072 1420 2755 
Q 1159 2438 1159 1844 
L 1159 0 
L 581 0 
L 581 3500 
L 1159 3500 
L 1159 2956 
Q 1341 3275 1631 3429 
Q 1922 3584 2338 3584 
Q 2397 3584 2469 3576 
Q 2541 3569 2628 3553 
L 2631 2963 
z
" transform="scale(0.015625)"/>
      <path id="DejaVuSans-61" d="M 2194 1759 
Q 1497 1759 1228 1600 
Q 959 1441 959 1056 
Q 959 750 1161 570 
Q 1363 391 1709 391 
Q 2188 391 2477 730 
Q 2766 1069 2766 1631 
L 2766 1759 
L 2194 1759 
z
M 3341 1997 
L 3341 0 
L 2766 0 
L 2766 531 
Q 2569 213 2275 61 
Q 1981 -91 1556 -91 
Q 1019 -91 701 211 
Q 384 513 384 1019 
Q 384 1609 779 1909 
Q 1175 2209 1959 2209 
L 2766 2209 
L 2766 2266 
Q 2766 2663 2505 2880 
Q 2244 3097 1772 3097 
Q 1472 3097 1187 3025 
Q 903 2953 641 2809 
L 641 3341 
Q 956 3463 1253 3523 
Q 1550 3584 1831 3584 
Q 2591 3584 2966 3190 
Q 3341 2797 3341 1997 
z
" transform="scale(0.015625)"/>
      <path id="DejaVuSans-6e" d="M 3513 2113 
L 3513 0 
L 2938 0 
L 2938 2094 
Q 2938 2591 2744 2837 
Q 2550 3084 2163 3084 
Q 1697 3084 1428 2787 
Q 1159 2491 1159 1978 
L 1159 0 
L 581 0 
L 581 3500 
L 1159 3500 
L 1159 2956 
Q 1366 3272 1645 3428 
Q 1925 3584 2291 3584 
Q 2894 3584 3203 3211 
Q 3513 2838 3513 2113 
z
" transform="scale(0.015625)"/>
      <path id="DejaVuSans-64" d="M 2906 2969 
L 2906 4863 
L 3481 4863 
L 3481 0 
L 2906 0 
L 2906 525 
Q 2725 213 2448 61 
Q 2172 -91 1784 -91 
Q 1150 -91 751 415 
Q 353 922 353 1747 
Q 353 2572 751 3078 
Q 1150 3584 1784 3584 
Q 2172 3584 2448 3432 
Q 2725 3281 2906 2969 
z
M 947 1747 
Q 947 1113 1208 752 
Q 1469 391 1925 391 
Q 2381 391 2643 752 
Q 2906 1113 2906 1747 
Q 2906 2381 2643 2742 
Q 2381 3103 1925 3103 
Q 1469 3103 1208 2742 
Q 947 2381 947 1747 
z
" transform="scale(0.015625)"/>
      <path id="DejaVuSans-6f" d="M 1959 3097 
Q 1497 3097 1228 2736 
Q 959 2375 959 1747 
Q 959 1119 1226 758 
Q 1494 397 1959 397 
Q 2419 397 2687 759 
Q 2956 1122 2956 1747 
Q 2956 2369 2687 2733 
Q 2419 3097 1959 3097 
z
M 1959 3584 
Q 2709 3584 3137 3096 
Q 3566 2609 3566 1747 
Q 3566 888 3137 398 
Q 2709 -91 1959 -91 
Q 1206 -91 779 398 
Q 353 888 353 1747 
Q 353 2609 779 3096 
Q 1206 3584 1959 3584 
z
" transform="scale(0.015625)"/>
      <path id="DejaVuSans-6d" d="M 3328 2828 
Q 3544 3216 3844 3400 
Q 4144 3584 4550 3584 
Q 5097 3584 5394 3201 
Q 5691 2819 5691 2113 
L 5691 0 
L 5113 0 
L 5113 2094 
Q 5113 2597 4934 2840 
Q 4756 3084 4391 3084 
Q 3944 3084 3684 2787 
Q 3425 2491 3425 1978 
L 3425 0 
L 2847 0 
L 2847 2094 
Q 2847 2600 2669 2842 
Q 2491 3084 2119 3084 
Q 1678 3084 1418 2786 
Q 1159 2488 1159 1978 
L 1159 0 
L 581 0 
L 581 3500 
L 1159 3500 
L 1159 2956 
Q 1356 3278 1631 3431 
Q 1906 3584 2284 3584 
Q 2666 3584 2933 3390 
Q 3200 3197 3328 2828 
z
" transform="scale(0.015625)"/>
      <path id="DejaVuSans-2d" d="M 313 2009 
L 1997 2009 
L 1997 1497 
L 313 1497 
L 313 2009 
z
" transform="scale(0.015625)"/>
      <path id="DejaVuSans-73" d="M 2834 3397 
L 2834 2853 
Q 2591 2978 2328 3040 
Q 2066 3103 1784 3103 
Q 1356 3103 1142 2972 
Q 928 2841 928 2578 
Q 928 2378 1081 2264 
Q 1234 2150 1697 2047 
L 1894 2003 
Q 2506 1872 2764 1633 
Q 3022 1394 3022 966 
Q 3022 478 2636 193 
Q 2250 -91 1575 -91 
Q 1294 -91 989 -36 
Q 684 19 347 128 
L 347 722 
Q 666 556 975 473 
Q 1284 391 1588 391 
Q 1994 391 2212 530 
Q 2431 669 2431 922 
Q 2431 1156 2273 1281 
Q 2116 1406 1581 1522 
L 1381 1569 
Q 847 1681 609 1914 
Q 372 2147 372 2553 
Q 372 3047 722 3315 
Q 1072 3584 1716 3584 
Q 2034 3584 2315 3537 
Q 2597 3491 2834 3397 
z
" transform="scale(0.015625)"/>
      <path id="DejaVuSans-6c" d="M 603 4863 
L 1178 4863 
L 1178 0 
L 603 0 
L 603 4863 
z
" transform="scale(0.015625)"/>
     </defs>
     <use xlink:href="#DejaVuSans-72"/>
     <use xlink:href="#DejaVuSans-61" transform="translate(41.113281 0)"/>
     <use xlink:href="#DejaVuSans-6e" transform="translate(102.392578 0)"/>
     <use xlink:href="#DejaVuSans-64" transform="translate(165.771484 0)"/>
     <use xlink:href="#DejaVuSans-6f" transform="translate(229.248047 0)"/>
     <use xlink:href="#DejaVuSans-6d" transform="translate(290.429688 0)"/>
     <use xlink:href="#DejaVuSans-2d" transform="translate(387.841797 0)"/>
     <use xlink:href="#DejaVuSans-73" transform="translate(423.925781 0)"/>
     <use xlink:href="#DejaVuSans-6d" transform="translate(476.025391 0)"/>
     <use xlink:href="#DejaVuSans-61" transform="translate(573.4375 0)"/>
     <use xlink:href="#DejaVuSans-6c" transform="translate(634.716797 0)"/>
     <use xlink:href="#DejaVuSans-6c" transform="translate(662.5 0)"/>
     <use xlink:href="#DejaVuSans-2d" transform="translate(690.283203 0)"/>
     <use xlink:href="#DejaVuSans-6e" transform="translate(726.367188 0)"/>
     <use xlink:href="#DejaVuSans-38" transform="translate(789.746094 0)"/>
     <use xlink:href="#DejaVuSans-2d" transform="translate(853.369141 0)"/>
     <use xlink:href="#DejaVuSans-73" transform="translate(889.453125 0)"/>
     <use xlink:href="#DejaVuSans-30" transform="translate(941.552734 0)"/>
    </g>
   </g>
  </g>
 </g>
 <defs>
  <clipPath id="p99dc0a26f3">
   <rect x="7.2" y="20.798437" width="439.2" height="425.28"/>
  </clipPath>
 </defs>
</svg>
